{"glyphs":{"0":{"ha":715,"x_min":54,"x_max":661,"o":"m 357 908 q 186 797 248 908 q 125 489 125 686 q 186 181 125 292 q 357 71 248 71 q 528 181 467 71 q 590 489 590 292 q 528 797 590 686 q 357 908 467 908 m 357 0 q 134 130 215 0 q 54 489 54 260 q 134 848 54 719 q 357 979 215 979 q 580 848 500 979 q 661 489 661 719 q 580 130 661 260 q 357 0 500 0 z "},"1":{"ha":286,"x_min":54,"x_max":231,"o":"m 181 980 l 54 853 l 104 804 l 161 861 l 161 0 l 231 0 l 231 976 l 181 980 z "},"2":{"ha":616,"x_min":54,"x_max":562,"o":"m 562 71 l 557 0 l 77 0 l 77 87 l 425 558 q 460 701 460 612 q 416 855 460 801 q 292 910 373 910 q 169 856 213 910 q 125 702 125 801 l 54 708 q 120 907 56 834 q 292 981 184 981 q 467 905 403 981 q 531 701 531 831 q 483 519 531 591 l 482 517 l 153 71 l 562 71 z "},"3":{"ha":642,"x_min":54,"x_max":588,"o":"m 588 281 q 516 75 588 151 q 321 0 445 0 q 126 75 198 0 q 54 280 55 151 l 125 274 q 178 123 127 177 q 321 71 229 71 q 467 125 415 71 q 517 281 517 180 q 467 437 517 381 q 321 492 415 492 l 239 492 l 244 562 l 321 562 q 441 607 399 562 q 483 736 483 652 q 441 865 483 820 q 321 910 399 910 q 203 867 245 910 q 159 744 161 825 l 89 739 q 152 916 90 850 q 321 981 214 981 q 491 915 429 981 q 553 736 553 849 q 459 530 553 594 q 554 433 521 497 q 588 281 588 369 z "},"4":{"ha":643,"x_min":54,"x_max":589,"o":"m 367 982 l 54 332 l 94 286 l 375 286 l 375 0 l 445 0 l 445 286 l 589 286 l 589 357 l 445 357 l 445 551 l 380 557 l 375 557 l 375 357 l 144 357 l 411 912 l 463 912 l 469 982 l 367 982 z "},"5":{"ha":621,"x_min":54,"x_max":567,"o":"m 166 615 l 189 908 l 553 908 l 559 979 l 124 979 l 90 545 l 312 545 q 448 482 400 545 q 496 308 496 420 q 448 132 496 195 q 311 71 399 71 q 175 130 224 71 q 125 299 127 190 l 54 304 q 124 82 55 163 q 311 0 193 0 q 498 83 429 0 q 567 308 567 165 q 498 532 567 450 q 312 615 430 615 l 166 615 z "},"6":{"ha":573,"x_min":54,"x_max":519,"o":"m 287 71 q 151 162 191 71 q 130 241 136 196 q 125 308 125 273 q 130 375 125 342 q 151 453 136 419 q 287 545 191 545 q 422 453 382 545 q 444 375 437 419 q 449 308 449 342 q 444 241 449 273 q 422 162 437 196 q 287 71 382 71 m 287 615 q 151 569 207 615 q 233 758 179 681 q 507 907 333 899 l 513 978 q 176 798 298 970 q 54 332 54 627 l 55 332 l 54 308 q 117 83 54 165 q 287 0 179 0 q 456 83 394 0 q 519 308 519 165 q 456 533 519 450 q 287 615 394 615 z "},"7":{"ha":627,"x_min":54,"x_max":572,"o":"m 77 979 l 71 909 l 497 909 l 54 -24 l 118 -54 l 569 897 l 572 904 l 566 979 l 77 979 z "},"8":{"ha":642,"x_min":54,"x_max":588,"o":"m 321 71 q 176 125 227 71 q 125 281 125 180 q 176 437 125 381 q 321 492 227 492 q 466 437 415 492 q 517 281 517 381 q 466 125 517 180 q 321 71 415 71 m 321 910 q 441 865 399 910 q 483 736 483 820 q 441 607 483 652 q 321 562 399 562 q 201 607 243 562 q 159 736 159 652 q 201 865 159 820 q 321 910 243 910 m 459 530 q 553 736 553 594 q 491 915 553 849 q 321 981 429 981 q 151 915 214 981 q 89 736 89 849 q 183 530 89 594 q 88 433 121 497 q 54 281 54 369 q 126 75 54 151 q 321 0 197 0 q 516 75 445 0 q 588 281 588 151 q 554 433 588 369 q 459 530 521 497 z "},"9":{"ha":573,"x_min":54,"x_max":519,"o":"m 287 908 q 422 816 382 908 q 444 738 437 782 q 449 670 449 705 q 444 603 449 635 q 422 525 437 559 q 287 433 382 433 q 151 525 191 433 q 130 603 136 559 q 125 670 125 635 q 130 738 125 705 q 151 816 136 782 q 287 908 191 908 m 287 363 q 422 409 366 363 q 340 220 395 297 q 66 71 240 80 l 60 0 q 397 180 275 7 q 519 647 519 351 l 518 647 l 519 670 q 456 895 519 812 q 287 978 394 978 q 117 895 179 978 q 54 670 54 812 q 117 446 54 528 q 287 363 179 363 z "},"\u0000":{"ha":0,"x_min":0,"x_max":0,"o":""},"\u001d":{"ha":0,"x_min":0,"x_max":0,"o":""}," ":{"ha":345,"x_min":0,"x_max":0,"o":""}," ":{"ha":345,"x_min":0,"x_max":0,"o":""},"!":{"ha":229,"x_min":54,"x_max":175,"o":"m 54 1022 l 85 209 l 159 203 l 175 1016 l 54 1022 m 123 91 q 90 77 104 91 q 77 45 77 64 q 90 14 77 26 q 123 0 104 0 q 155 14 141 0 q 168 45 168 26 q 155 77 168 64 q 123 91 141 91 z "},"\"":{"ha":336,"x_min":54,"x_max":282,"o":"m 54 769 l 127 769 l 148 1024 l 75 1024 l 54 769 m 282 1024 l 209 1024 l 188 769 l 261 769 l 282 1024 z "},"#":{"ha":809,"x_min":54,"x_max":755,"o":"m 515 711 l 335 711 l 368 951 l 295 958 l 262 711 l 104 711 l 89 637 l 252 637 l 228 458 l 71 458 l 54 385 l 218 385 l 185 144 l 258 138 l 291 385 l 471 385 l 438 144 l 511 138 l 544 385 l 705 385 l 720 458 l 554 458 l 578 637 l 739 637 l 755 711 l 588 711 l 621 951 l 548 958 l 515 711 m 326 637 l 505 637 l 480 458 l 301 458 l 326 637 z "},"$":{"ha":657,"x_min":54,"x_max":603,"o":"m 454 483 q 530 348 530 442 q 454 212 530 254 l 454 483 m 381 581 q 328 585 355 585 q 291 587 309 585 l 291 874 q 328 877 309 877 q 381 872 356 877 l 381 581 m 381 189 q 328 184 355 184 q 291 186 310 184 l 291 513 q 328 511 310 511 q 381 507 355 511 l 381 189 m 218 608 q 149 730 149 644 q 218 854 149 817 l 218 608 m 454 844 q 509 731 509 808 l 582 737 q 454 927 578 876 l 454 1019 l 381 1025 l 381 947 q 328 950 356 950 q 291 948 310 950 l 291 1017 l 218 1023 l 218 933 q 113 857 150 909 q 75 730 75 805 q 113 604 75 656 q 218 528 150 551 l 218 205 q 127 340 131 243 l 54 346 q 98 207 55 264 q 218 126 140 151 l 218 6 l 291 0 l 291 113 q 328 111 310 111 q 381 114 355 111 l 381 8 l 454 2 l 454 132 q 564 213 526 157 q 603 348 603 269 q 564 482 603 426 q 454 564 526 538 l 454 844 z "},"%":{"ha":727,"x_min":54,"x_max":673,"o":"m 136 14 l 206 7 l 591 821 l 521 827 l 136 14 m 127 656 q 130 689 127 673 q 139 723 133 709 q 193 761 155 761 q 248 723 231 761 q 256 689 254 709 q 259 656 259 673 q 256 623 259 638 q 248 589 254 604 q 193 551 231 551 q 139 589 155 551 q 130 623 133 604 q 127 656 127 638 m 332 656 q 295 786 332 739 q 193 834 258 834 q 92 786 129 834 q 54 656 54 739 q 92 526 54 574 q 193 478 129 478 q 295 526 258 478 q 332 656 332 574 m 534 73 q 479 111 496 73 q 470 145 473 125 q 468 178 468 161 q 470 211 468 196 q 479 245 473 231 q 534 283 496 283 q 588 245 571 283 q 597 211 594 231 q 599 178 599 196 q 597 145 599 161 q 588 111 594 125 q 534 73 571 73 m 534 356 q 432 309 469 356 q 395 178 395 260 q 432 48 395 96 q 534 0 469 0 q 635 48 598 0 q 673 178 673 96 q 635 309 673 260 q 534 356 598 356 z "},"&":{"ha":706,"x_min":54,"x_max":652,"o":"m 564 301 q 503 133 559 192 q 346 73 446 73 q 185 138 242 73 q 127 319 127 202 q 185 501 127 437 q 346 565 242 565 q 501 627 444 565 q 558 796 558 689 q 501 965 558 903 q 346 1027 444 1027 q 197 970 253 1027 q 135 816 140 914 l 209 822 q 240 909 214 876 q 346 954 276 954 q 460 897 426 954 q 480 846 474 875 q 485 796 485 823 q 480 747 485 770 q 460 695 474 717 q 346 639 426 639 q 133 553 211 639 q 54 319 54 467 q 133 85 54 172 q 346 0 211 0 q 530 58 456 0 l 604 3 l 652 59 l 581 112 q 637 307 635 189 l 564 301 z "},"'":{"ha":202,"x_min":54,"x_max":148,"o":"m 54 769 l 127 769 l 148 1024 l 75 1024 l 54 769 z "},"(":{"ha":303,"x_min":54,"x_max":249,"o":"m 177 1024 q 54 512 54 783 q 177 0 54 241 l 180 0 l 249 3 q 127 512 127 243 q 249 1021 127 781 l 180 1024 l 177 1024 z "},")":{"ha":303,"x_min":54,"x_max":249,"o":"m 123 1024 l 54 1021 q 176 512 176 781 q 54 3 176 243 l 123 0 l 126 0 q 249 512 249 241 q 126 1024 249 783 l 123 1024 z "},"*":{"ha":355,"x_min":54,"x_max":301,"o":"m 121 1087 l 68 1036 l 126 968 l 54 907 l 106 855 l 174 912 l 235 841 l 286 892 l 229 960 l 301 1021 l 249 1073 l 182 1015 l 121 1087 z "},"+":{"ha":363,"x_min":54,"x_max":309,"o":"m 135 661 l 142 567 l 54 560 l 54 487 l 148 494 l 155 406 l 229 406 l 221 500 l 309 507 l 309 581 l 215 573 l 208 661 l 135 661 z "},",":{"ha":190,"x_min":54,"x_max":136,"o":"m 62 63 l 54 -41 l 127 -41 l 136 63 l 62 63 z "},"-":{"ha":363,"x_min":54,"x_max":309,"o":"m 54 572 l 54 499 l 309 520 l 309 593 l 54 572 z "},"­":{"ha":363,"x_min":54,"x_max":309,"o":"m 54 572 l 54 499 l 309 520 l 309 593 l 54 572 z "},".":{"ha":199,"x_min":54,"x_max":145,"o":"m 100 84 q 68 71 81 84 q 54 39 54 58 q 68 7 54 20 q 100 -7 81 -7 q 132 7 119 -7 q 145 39 145 20 q 132 71 145 58 q 100 84 119 84 z "},"/":{"ha":420,"x_min":54,"x_max":366,"o":"m 297 981 l 54 0 l 125 0 l 366 975 l 300 981 l 297 981 z "},":":{"ha":199,"x_min":54,"x_max":145,"o":"m 100 700 q 67 686 81 700 q 54 654 54 673 q 67 623 54 635 q 100 609 81 609 q 132 623 118 609 q 145 654 145 635 q 132 686 145 673 q 100 700 118 700 m 100 452 q 67 439 81 452 q 54 406 54 425 q 67 374 54 387 q 100 361 81 361 q 132 374 118 361 q 145 406 145 387 q 132 439 145 425 q 100 452 118 452 z "},";":{"ha":199,"x_min":54,"x_max":145,"o":"m 59 348 l 132 348 l 140 452 l 67 452 l 59 348 m 100 700 q 67 686 81 700 q 54 654 54 673 q 67 623 54 635 q 100 609 81 609 q 132 623 118 609 q 145 654 145 635 q 132 686 145 673 q 100 700 118 700 z "},";":{"ha":199,"x_min":54,"x_max":145,"o":"m 59 348 l 132 348 l 140 452 l 67 452 l 59 348 m 100 700 q 67 686 81 700 q 54 654 54 673 q 67 623 54 635 q 100 609 81 609 q 132 623 118 609 q 145 654 145 635 q 132 686 145 673 q 100 700 118 700 z "},"<":{"ha":329,"x_min":54,"x_max":275,"o":"m 260 588 l 55 530 l 54 457 l 275 393 l 269 467 l 182 493 l 265 517 l 260 588 z "},"=":{"ha":363,"x_min":54,"x_max":309,"o":"m 54 534 l 309 554 l 309 627 l 54 607 l 54 534 m 54 399 l 309 420 l 309 493 l 54 473 l 54 399 z "},">":{"ha":329,"x_min":54,"x_max":275,"o":"m 64 517 l 147 493 l 60 467 l 54 393 l 275 457 l 274 530 l 68 588 l 64 517 z "},"?":{"ha":614,"x_min":54,"x_max":560,"o":"m 307 1022 q 125 956 193 1022 q 54 774 57 889 l 127 768 q 175 902 128 856 q 307 949 221 949 q 441 901 394 949 q 487 766 487 854 q 441 630 487 677 q 307 583 394 583 l 271 583 l 271 210 l 344 203 l 344 511 q 503 589 445 522 q 560 766 560 657 q 492 954 560 884 q 307 1022 425 1022 m 307 91 q 275 77 288 91 q 262 45 262 64 q 275 14 262 26 q 307 0 288 0 q 339 14 326 0 q 353 45 353 26 q 339 77 353 64 q 307 91 326 91 z "},"@":{"ha":870,"x_min":54,"x_max":816,"o":"m 543 465 q 546 512 546 488 q 543 559 546 536 q 528 614 538 590 q 435 680 500 680 q 342 614 370 680 q 328 559 332 591 q 324 512 324 537 q 328 465 324 487 q 342 410 332 433 q 435 345 370 345 q 528 410 500 345 q 543 465 538 434 m 718 376 q 713 298 718 337 q 742 512 742 393 q 659 838 742 721 q 435 951 579 951 q 210 838 290 951 q 127 512 127 721 q 210 186 127 303 q 435 73 290 73 l 446 74 l 456 75 q 613 199 566 85 q 638 294 631 241 q 644 376 644 335 q 639 452 644 416 q 618 543 633 502 q 619 512 619 526 q 570 336 619 401 q 435 272 520 272 q 300 336 350 272 q 251 512 251 401 q 300 688 251 623 q 435 753 350 753 q 456 751 446 753 q 647 643 577 743 q 718 376 718 543 m 151 880 q 435 1024 252 1024 q 720 880 617 1024 q 816 512 816 745 q 720 144 816 280 q 435 0 617 0 q 151 144 252 0 q 54 512 54 280 q 151 880 54 745 z "},"A":{"ha":808,"x_min":54,"x_max":753,"o":"m 368 980 l 54 0 l 125 0 l 229 327 l 578 327 l 683 0 l 753 0 l 441 975 l 371 980 l 368 980 m 404 871 l 555 397 l 252 397 l 404 871 z "},"B":{"ha":702,"x_min":54,"x_max":648,"o":"m 125 71 l 125 479 l 326 479 q 512 426 446 479 q 578 275 578 372 q 512 124 578 178 q 326 71 446 71 l 125 71 m 125 910 l 326 910 q 490 863 432 910 q 548 730 548 816 q 490 597 548 644 q 326 550 432 550 l 125 550 l 125 910 m 496 517 q 618 730 618 583 q 540 913 618 846 q 326 981 461 981 l 54 981 l 54 0 l 326 0 q 562 74 475 0 q 648 275 648 148 q 608 422 648 359 q 496 517 569 484 z "},"C":{"ha":807,"x_min":54,"x_max":753,"o":"m 418 910 q 596 845 526 910 q 681 707 651 794 l 753 713 q 627 911 713 842 q 418 981 541 981 q 146 842 244 981 q 54 490 54 713 q 146 138 54 268 q 418 0 244 0 q 627 69 541 0 q 753 268 713 138 l 681 273 q 596 136 651 186 q 418 71 526 71 q 203 178 280 71 q 125 490 125 290 q 203 802 125 690 q 418 910 280 910 z "},"D":{"ha":770,"x_min":54,"x_max":716,"o":"m 566 178 q 351 71 490 71 l 125 71 l 125 910 l 351 910 q 566 802 490 910 q 646 490 646 690 q 566 178 646 290 m 54 981 l 54 0 l 351 0 q 624 138 526 0 q 716 490 716 268 q 624 842 716 713 q 351 981 526 981 l 54 981 z "},"E":{"ha":654,"x_min":54,"x_max":600,"o":"m 54 981 l 54 0 l 590 0 l 590 71 l 125 71 l 125 459 l 557 459 l 563 530 l 125 530 l 125 910 l 594 910 l 600 981 l 54 981 z "},"F":{"ha":654,"x_min":54,"x_max":600,"o":"m 54 980 l 54 0 l 125 0 l 125 458 l 557 458 l 564 529 l 125 529 l 125 909 l 594 909 l 600 980 l 54 980 z "},"G":{"ha":838,"x_min":54,"x_max":783,"o":"m 441 455 l 712 455 q 633 178 705 279 q 418 71 557 71 q 203 178 281 71 q 125 490 125 290 q 203 802 125 690 q 418 910 281 910 q 581 857 513 910 q 682 703 648 804 l 754 709 q 628 909 715 839 q 418 981 541 981 q 146 842 244 981 q 54 490 54 713 q 146 138 54 268 q 418 0 244 0 q 691 138 593 0 q 783 490 783 268 l 783 526 l 446 526 l 441 455 z "},"H":{"ha":736,"x_min":54,"x_max":682,"o":"m 612 981 l 612 530 l 125 530 l 125 974 l 54 979 l 54 0 l 125 0 l 125 459 l 612 459 l 612 0 l 682 0 l 682 975 l 614 981 l 612 981 z "},"I":{"ha":179,"x_min":54,"x_max":125,"o":"m 54 981 l 54 0 l 125 0 l 125 975 l 57 981 l 54 981 z "},"J":{"ha":648,"x_min":54,"x_max":593,"o":"m 593 975 l 593 318 q 521 85 593 171 q 323 0 449 0 q 130 81 203 0 q 54 302 58 161 l 124 307 q 179 132 127 194 q 323 71 231 71 q 471 135 419 71 q 524 318 524 200 l 524 981 l 593 975 z "},"K":{"ha":755,"x_min":54,"x_max":701,"o":"m 551 983 l 125 508 l 125 975 l 54 980 l 54 0 l 125 0 l 125 403 l 248 540 l 615 1 l 701 1 l 296 594 l 640 977 l 551 983 z "},"L":{"ha":547,"x_min":54,"x_max":492,"o":"m 54 981 l 54 0 l 487 0 l 492 71 l 125 71 l 125 975 l 54 981 z "},"M":{"ha":810,"x_min":54,"x_max":756,"o":"m 54 981 l 54 0 l 125 0 l 125 805 l 368 193 l 441 186 l 686 804 l 686 0 l 756 0 l 756 974 l 686 980 l 406 274 l 128 975 l 54 981 z "},"N":{"ha":652,"x_min":54,"x_max":597,"o":"m 54 981 l 54 0 l 125 0 l 125 835 l 527 0 l 597 0 l 597 970 l 527 977 l 527 146 l 127 975 l 57 981 l 54 981 z "},"O":{"ha":838,"x_min":54,"x_max":783,"o":"m 633 178 q 418 71 557 71 q 203 178 281 71 q 125 490 125 290 q 203 802 125 690 q 418 910 281 910 q 633 802 557 910 q 713 490 713 690 q 633 178 713 290 m 418 981 q 146 843 244 981 q 54 490 54 713 q 146 138 54 268 q 418 0 244 0 q 691 138 593 0 q 783 490 783 268 q 691 843 783 713 q 418 981 593 981 z "},"P":{"ha":681,"x_min":54,"x_max":627,"o":"m 125 493 l 125 910 l 300 910 q 489 855 422 910 q 557 701 557 801 q 489 547 557 602 q 300 493 422 493 l 125 493 m 54 981 l 54 0 l 125 0 l 125 422 l 300 422 q 539 497 451 422 q 627 701 627 572 q 539 905 627 831 q 300 981 451 981 l 54 981 z "},"Q":{"ha":838,"x_min":54,"x_max":783,"o":"m 518 107 q 408 90 455 117 q 203 198 277 94 q 125 510 125 310 q 203 822 125 710 q 418 930 281 930 q 633 822 557 930 q 713 510 713 710 q 633 198 713 310 q 518 107 588 134 m 691 158 q 783 510 783 288 q 691 863 783 732 q 418 1000 593 1000 q 146 863 244 1000 q 54 510 54 732 q 146 158 54 288 q 408 20 241 24 q 418 20 415 20 q 526 36 475 20 q 585 21 547 32 l 615 13 l 645 5 q 764 16 714 -9 l 770 90 q 618 82 712 58 q 691 158 660 113 z "},"R":{"ha":692,"x_min":54,"x_max":638,"o":"m 125 550 l 125 910 l 326 910 q 490 863 432 910 q 548 730 548 816 q 490 597 548 644 q 326 550 432 550 l 125 550 m 618 298 q 617 316 618 304 l 616 326 l 614 337 l 613 343 l 612 350 q 608 364 610 358 l 606 372 l 604 380 l 597 396 q 589 412 595 402 l 585 420 l 579 429 l 568 445 l 554 460 l 551 464 l 547 467 l 539 474 l 531 481 l 523 486 q 506 497 515 492 l 488 507 l 481 510 q 618 730 618 572 q 540 913 618 846 q 326 981 461 981 l 54 981 l 54 0 l 125 0 l 125 479 l 325 479 q 340 479 327 479 l 345 479 l 349 479 q 359 478 355 479 l 369 477 l 380 476 l 392 473 l 406 471 l 419 467 l 433 463 q 446 458 438 461 l 460 452 l 473 444 q 485 436 480 439 l 491 431 l 496 427 l 502 422 l 505 419 l 507 416 l 515 406 l 524 394 l 527 389 l 530 382 q 535 371 534 375 l 539 359 l 543 348 l 545 338 l 546 328 l 547 319 l 547 312 q 548 298 548 302 l 548 75 q 568 1 549 34 l 638 1 q 618 75 619 35 l 618 298 z "},"S":{"ha":744,"x_min":54,"x_max":690,"o":"m 372 546 q 208 593 266 546 q 149 728 149 642 q 208 863 149 815 q 372 910 266 910 q 536 863 477 910 q 595 730 594 816 l 665 735 q 584 915 662 849 q 372 981 505 981 q 157 913 236 981 q 79 728 79 845 q 157 543 79 611 q 372 475 236 475 q 555 422 490 475 q 619 273 619 370 q 555 123 619 176 q 372 71 490 71 q 192 121 256 71 q 125 264 127 172 l 54 271 q 140 73 55 145 q 372 0 226 0 q 604 73 519 0 q 690 273 690 146 q 604 473 690 399 q 372 546 519 546 z "},"T":{"ha":698,"x_min":54,"x_max":644,"o":"m 54 981 l 54 910 l 314 910 l 314 0 l 385 0 l 385 910 l 644 910 l 644 981 l 54 981 z "},"U":{"ha":758,"x_min":54,"x_max":703,"o":"m 633 363 q 566 147 633 224 q 378 71 500 71 q 191 147 258 71 q 125 363 125 224 l 125 975 l 54 980 l 54 363 q 142 98 54 195 q 378 0 229 0 q 616 98 529 0 q 703 363 703 195 l 703 974 l 633 979 l 633 363 z "},"V":{"ha":774,"x_min":54,"x_max":720,"o":"m 126 981 l 54 975 l 351 0 l 424 0 l 720 972 l 648 978 l 387 121 l 126 981 z "},"W":{"ha":861,"x_min":54,"x_max":806,"o":"m 124 980 l 54 974 l 155 0 l 225 1 l 431 652 l 636 0 l 707 0 l 806 970 l 736 976 l 653 168 l 466 763 l 395 763 l 208 170 l 124 980 z "},"X":{"ha":857,"x_min":54,"x_max":802,"o":"m 686 985 l 428 583 l 174 981 l 94 975 l 387 518 l 54 0 l 138 0 l 428 453 l 719 0 l 802 0 l 470 518 l 765 979 l 686 985 z "},"Y":{"ha":779,"x_min":54,"x_max":725,"o":"m 646 985 l 389 583 l 134 981 l 54 975 l 353 508 l 353 0 l 424 0 l 424 508 l 725 979 l 646 985 z "},"Z":{"ha":793,"x_min":54,"x_max":739,"o":"m 104 981 l 98 910 l 648 910 l 54 71 l 54 0 l 733 0 l 739 71 l 140 71 l 728 902 l 728 981 l 104 981 z "},"[":{"ha":363,"x_min":54,"x_max":309,"o":"m 54 1057 l 54 -88 l 309 -109 l 309 -35 l 127 -20 l 127 989 l 309 1004 l 309 1078 l 54 1057 z "},"\\":{"ha":420,"x_min":54,"x_max":366,"o":"m 121 981 l 54 975 l 296 0 l 366 0 l 123 981 l 121 981 z "},"]":{"ha":363,"x_min":54,"x_max":309,"o":"m 54 1078 l 54 1004 l 236 989 l 236 -20 l 54 -35 l 54 -109 l 309 -88 l 309 1057 l 54 1078 z "},"^":{"ha":304,"x_min":54,"x_max":250,"o":"m 155 897 l 178 813 l 250 819 l 192 1024 l 119 1024 l 54 804 l 129 810 l 155 897 z "},"_":{"ha":363,"x_min":54,"x_max":309,"o":"m 309 -1 l 54 -22 l 54 -95 l 309 -75 l 309 -1 z "},"`":{"ha":254,"x_min":54,"x_max":200,"o":"m 122 1032 l 54 1004 l 132 761 l 200 789 l 122 1032 z "},"a":{"ha":623,"x_min":54,"x_max":569,"o":"m 311 71 q 155 176 201 71 q 130 265 138 214 q 125 342 125 302 q 130 419 125 382 q 155 509 138 470 q 311 614 201 614 q 468 509 421 614 q 493 419 486 470 q 498 342 498 382 l 498 342 q 493 265 498 302 q 468 176 486 214 q 311 71 421 71 m 505 679 l 498 591 l 498 590 q 444 645 475 624 l 436 651 q 311 684 382 684 q 189 652 243 684 l 184 649 l 178 645 q 87 528 119 605 q 54 342 54 449 q 87 157 54 235 q 178 39 119 79 l 182 37 l 187 33 q 311 0 241 0 q 441 37 385 0 l 445 39 q 498 94 475 60 l 498 90 l 505 0 l 569 0 l 569 684 l 505 679 z "},"b":{"ha":623,"x_min":54,"x_max":568,"o":"m 311 71 q 157 171 204 71 q 131 258 139 208 q 125 336 125 295 l 125 349 q 131 426 125 389 q 157 513 139 475 q 311 614 204 614 q 468 509 421 614 q 493 419 486 470 q 498 342 498 382 q 493 265 498 302 q 468 176 486 214 q 311 71 421 71 m 439 649 l 433 652 q 311 684 380 684 q 187 651 241 684 l 178 645 q 125 590 148 624 l 125 1000 l 54 1006 l 54 0 l 117 0 l 124 94 q 178 39 148 60 l 182 37 q 311 0 237 0 q 436 33 381 0 l 441 37 l 444 39 q 536 157 504 79 q 568 342 568 235 q 536 528 568 449 q 444 645 504 605 l 439 649 z "},"c":{"ha":603,"x_min":54,"x_max":549,"o":"m 549 191 q 459 50 522 100 q 311 0 397 0 q 123 92 193 0 q 54 342 54 184 q 123 592 54 500 q 311 684 193 684 q 459 634 397 684 q 549 494 522 585 l 477 488 q 422 574 457 542 q 311 614 378 614 q 155 509 201 614 q 130 419 138 470 q 125 342 125 382 q 130 265 125 302 q 155 176 138 214 q 311 71 201 71 q 422 111 378 71 q 477 197 457 142 l 549 191 z "},"d":{"ha":623,"x_min":54,"x_max":568,"o":"m 311 71 q 155 176 201 71 q 130 265 138 214 q 125 342 125 302 q 130 419 125 382 q 155 509 138 470 q 311 614 201 614 q 467 511 420 614 q 492 423 484 473 q 498 347 498 387 l 498 338 q 492 260 498 298 q 467 173 484 210 q 311 71 420 71 m 498 999 l 498 590 q 444 645 475 624 l 436 651 q 311 684 382 684 q 189 652 243 684 l 184 649 l 178 645 q 87 528 119 605 q 54 342 54 449 q 87 157 54 235 q 178 39 119 79 l 182 37 l 187 33 q 311 0 241 0 q 441 37 385 0 l 445 39 q 498 94 475 60 l 506 0 l 568 0 l 568 994 l 498 999 z "},"e":{"ha":623,"x_min":54,"x_max":569,"o":"m 125 377 q 136 452 128 418 q 165 530 146 497 q 311 614 214 614 q 458 530 410 614 q 486 452 476 497 q 497 377 494 418 l 125 377 m 569 342 q 500 592 569 500 q 311 684 431 684 q 123 592 193 684 q 54 342 54 500 q 123 92 54 184 q 311 0 193 0 q 474 62 410 0 q 559 237 539 124 l 489 243 q 440 130 475 173 q 311 71 392 71 q 165 155 214 71 q 136 231 146 187 q 125 307 128 267 l 569 307 l 569 342 z "},"f":{"ha":446,"x_min":54,"x_max":391,"o":"m 386 998 q 210 911 275 996 q 139 684 144 827 l 60 684 l 54 613 l 138 613 l 138 5 l 202 0 l 209 0 l 209 613 l 288 613 l 294 684 l 210 684 q 218 759 211 724 q 245 838 227 804 q 391 928 292 928 l 386 998 z "},"g":{"ha":623,"x_min":54,"x_max":568,"o":"m 311 71 q 155 176 201 71 q 130 266 138 215 q 125 342 125 302 q 130 420 125 382 q 155 509 138 471 q 311 614 201 614 q 467 513 420 614 q 492 425 484 475 q 498 348 498 389 l 498 338 q 492 260 498 297 q 467 172 484 210 q 311 71 420 71 m 505 680 l 498 591 l 498 591 q 444 646 475 625 l 436 652 q 311 685 382 685 q 189 653 243 685 l 184 650 l 178 646 q 87 528 119 606 q 54 342 54 450 q 87 157 54 236 q 178 39 119 80 l 182 37 l 187 34 q 311 1 241 1 q 441 37 385 1 l 445 39 q 498 95 475 61 l 498 -4 q 493 -81 498 -43 q 468 -170 486 -132 q 311 -275 421 -275 q 142 -136 184 -275 l 68 -130 q 155 -289 92 -233 q 311 -346 219 -346 q 498 -255 430 -346 q 568 -7 568 -164 l 568 685 l 505 680 z "},"h":{"ha":623,"x_min":54,"x_max":568,"o":"m 439 649 l 434 652 q 311 684 380 684 q 187 651 241 684 l 178 645 q 125 590 148 624 l 125 1000 l 54 1006 l 54 0 l 125 0 l 125 345 q 130 421 125 385 q 155 510 138 472 q 311 614 202 614 q 468 509 421 614 q 493 419 486 470 q 498 342 498 382 l 498 0 l 568 0 l 568 342 q 536 528 568 449 q 444 645 504 605 l 439 649 z "},"i":{"ha":195,"x_min":54,"x_max":141,"o":"m 62 0 l 133 0 l 133 677 l 62 683 l 62 0 m 98 750 q 129 763 116 750 q 141 793 141 776 q 129 825 141 812 q 98 837 116 837 q 67 825 80 837 q 54 793 54 812 q 67 763 54 776 q 98 750 80 750 z "},"j":{"ha":370,"x_min":54,"x_max":316,"o":"m 307 679 l 237 684 l 237 -9 q 232 -85 237 -48 q 208 -172 224 -134 q 54 -275 162 -275 l 54 -346 q 239 -256 172 -346 q 307 -9 307 -165 l 307 679 m 273 751 q 303 764 290 751 q 316 795 316 777 q 303 826 316 813 q 273 839 290 839 q 241 826 254 839 q 229 795 229 813 q 241 764 229 777 q 273 751 254 751 z "},"k":{"ha":597,"x_min":54,"x_max":543,"o":"m 54 1004 l 54 1 l 125 1 l 125 245 l 228 355 l 458 0 l 543 0 l 277 408 l 492 637 l 441 685 l 125 348 l 125 998 l 54 1004 z "},"l":{"ha":179,"x_min":54,"x_max":125,"o":"m 54 1003 l 54 0 l 125 0 l 125 998 l 54 1003 z "},"m":{"ha":1021,"x_min":54,"x_max":967,"o":"m 793 673 l 788 675 q 721 684 756 684 q 654 675 686 684 l 648 673 l 642 671 q 515 524 554 637 q 379 671 473 636 l 372 673 l 366 675 q 300 684 335 684 q 233 675 264 684 l 227 673 l 221 671 q 124 587 161 648 l 117 678 l 54 684 l 54 0 l 125 0 l 125 360 q 132 437 125 401 q 158 520 141 484 q 300 614 203 614 q 447 509 403 614 q 470 419 463 470 q 475 342 475 382 l 475 1 l 545 1 l 545 344 q 551 420 546 384 q 574 509 558 471 q 721 614 618 614 q 868 509 824 614 q 891 419 884 470 q 897 342 897 382 l 897 1 l 967 1 l 967 342 q 923 556 967 470 q 800 671 879 642 l 793 673 z "},"n":{"ha":600,"x_min":54,"x_max":545,"o":"m 372 673 l 366 675 q 300 684 335 684 q 233 675 264 684 l 227 673 l 221 671 q 123 587 161 648 l 117 678 l 54 684 l 54 0 l 125 0 l 125 360 q 132 437 126 401 q 158 520 141 485 q 300 614 203 614 q 447 509 403 614 q 470 419 463 470 q 475 342 475 382 l 475 1 l 545 1 l 545 342 q 501 556 545 470 q 378 671 458 642 l 372 673 z "},"o":{"ha":623,"x_min":54,"x_max":569,"o":"m 311 614 q 155 509 201 614 q 130 419 138 470 q 125 342 125 382 q 130 265 125 302 q 155 176 138 214 q 311 71 201 71 q 468 176 421 71 q 493 265 486 214 q 498 342 498 302 q 493 419 498 382 q 468 509 486 470 q 311 614 421 614 m 311 0 q 123 92 193 0 q 54 342 54 184 q 123 592 54 500 q 311 684 193 684 q 500 592 431 684 q 569 342 569 500 q 500 92 569 184 q 311 0 431 0 z "},"p":{"ha":623,"x_min":54,"x_max":569,"o":"m 311 70 q 155 174 202 70 q 130 263 138 213 q 125 340 125 300 l 125 343 q 130 420 125 383 q 155 509 138 471 q 311 614 202 614 q 468 509 421 614 q 493 418 486 470 q 498 342 498 382 q 493 265 498 302 q 468 175 486 214 q 311 70 421 70 m 441 648 l 436 650 q 311 684 381 684 q 182 647 238 684 l 178 645 q 125 589 148 623 l 125 591 l 117 684 l 54 679 l 54 -322 l 125 -317 l 125 94 q 178 39 148 60 l 187 33 q 311 0 241 0 q 434 32 380 0 l 439 35 l 444 39 q 536 157 504 79 q 569 342 569 235 q 536 527 569 448 q 444 645 504 604 l 441 648 z "},"q":{"ha":671,"x_min":54,"x_max":616,"o":"m 311 71 q 155 176 201 71 q 130 266 138 215 q 125 343 125 303 q 130 420 125 383 q 155 509 138 471 q 311 615 201 615 q 468 509 421 615 q 493 420 486 471 q 498 343 498 383 q 493 266 498 303 q 468 176 486 215 q 311 71 421 71 m 604 -269 l 569 -266 l 569 685 l 564 685 l 506 680 l 498 591 l 498 591 q 445 646 475 625 l 444 646 l 441 648 q 311 685 385 685 q 187 652 241 685 l 182 649 l 178 646 q 87 528 119 606 q 54 343 54 450 q 87 158 54 237 q 178 40 119 80 l 184 37 l 189 33 q 311 1 243 1 q 436 35 382 1 l 444 40 q 498 95 475 62 l 498 -323 l 504 -323 l 569 -329 l 612 -332 l 616 -270 l 604 -269 z "},"r":{"ha":385,"x_min":54,"x_max":331,"o":"m 300 677 q 233 667 264 677 l 227 665 l 221 663 q 125 581 161 641 l 117 679 l 54 684 l 54 0 l 125 0 l 125 353 q 132 430 126 394 q 158 513 141 477 q 300 606 203 606 q 331 604 317 606 l 331 675 q 300 677 315 677 z "},"s":{"ha":559,"x_min":54,"x_max":505,"o":"m 280 391 q 236 395 256 391 q 191 410 210 400 q 141 503 141 438 q 191 595 141 567 q 236 610 210 605 q 280 614 256 614 q 323 610 303 614 q 369 595 349 605 q 418 503 418 567 l 489 509 q 431 637 487 590 q 280 684 375 684 q 127 635 183 684 q 71 503 71 587 q 127 370 71 418 q 280 321 183 321 q 329 317 306 321 q 379 299 357 311 q 435 195 435 268 q 379 92 435 123 q 329 75 357 80 q 280 71 306 71 q 232 75 254 71 q 182 91 203 79 q 125 189 127 121 l 54 195 q 115 52 54 104 q 280 0 176 0 q 445 52 385 0 q 505 195 505 105 q 445 338 505 286 q 280 391 385 391 z "},"t":{"ha":363,"x_min":54,"x_max":309,"o":"m 216 614 l 304 614 l 309 684 l 216 684 l 216 904 l 146 909 l 146 684 l 60 684 l 54 614 l 146 614 l 146 149 q 191 41 146 81 q 309 0 235 0 l 309 5 l 304 71 q 245 87 267 71 q 216 149 217 106 l 216 614 z "},"u":{"ha":600,"x_min":54,"x_max":545,"o":"m 475 684 l 475 325 q 467 248 474 283 q 442 164 459 200 q 300 71 397 71 q 153 176 197 71 q 130 265 137 214 q 125 342 125 302 l 125 684 l 54 684 l 54 342 q 98 128 54 214 q 221 14 142 43 l 228 12 l 233 9 q 300 0 265 0 q 367 9 335 0 l 372 12 l 379 14 q 476 96 439 36 l 484 0 l 545 0 l 545 684 l 475 684 z "},"v":{"ha":610,"x_min":54,"x_max":556,"o":"m 484 681 l 305 117 l 126 681 l 54 675 l 269 0 l 342 0 l 556 675 l 484 681 z "},"w":{"ha":968,"x_min":54,"x_max":913,"o":"m 842 683 l 664 121 l 528 680 l 437 673 l 304 121 l 126 681 l 54 675 l 269 0 l 342 0 l 484 583 l 625 0 l 699 0 l 913 677 l 842 683 z "},"x":{"ha":656,"x_min":54,"x_max":602,"o":"m 492 684 l 328 427 l 165 681 l 100 676 l 85 675 l 87 672 l 286 361 l 54 0 l 138 0 l 328 296 l 518 0 l 602 0 l 370 361 l 572 677 l 492 684 z "},"y":{"ha":623,"x_min":54,"x_max":569,"o":"m 498 679 l 498 342 q 493 266 498 302 q 468 176 486 215 q 311 71 421 71 q 155 176 201 71 q 130 266 138 215 q 125 342 125 302 l 125 683 l 54 677 l 54 342 q 87 157 54 236 q 178 39 119 80 l 182 37 l 187 34 q 311 1 241 1 q 441 37 385 1 l 445 39 q 498 95 475 62 l 498 -7 q 492 -84 498 -47 q 467 -173 484 -135 q 311 -275 420 -275 q 142 -136 184 -275 l 68 -130 q 155 -289 92 -233 q 311 -346 219 -346 q 498 -255 430 -346 q 568 -7 568 -164 l 569 685 l 498 679 z "},"z":{"ha":585,"x_min":54,"x_max":531,"o":"m 98 684 l 93 614 l 444 614 l 54 62 l 54 0 l 524 0 l 529 71 l 146 71 l 531 616 l 531 684 l 98 684 z "},"{":{"ha":447,"x_min":54,"x_max":393,"o":"m 323 1024 l 393 1021 q 273 576 286 811 l 150 538 l 271 500 q 393 3 274 237 l 323 0 l 321 0 q 199 452 212 213 l 83 484 l 54 584 l 203 628 q 321 1024 225 837 l 323 1024 z "},"|":{"ha":179,"x_min":54,"x_max":125,"o":"m 54 1119 l 54 -176 l 125 -176 l 125 1114 l 57 1119 l 54 1119 z "},"}":{"ha":447,"x_min":54,"x_max":393,"o":"m 126 1024 q 243 628 222 837 l 393 584 l 363 484 l 248 452 q 126 0 235 213 l 123 0 l 54 3 q 176 500 172 237 l 297 538 l 174 576 q 54 1021 161 811 l 123 1024 l 126 1024 z "},"~":{"ha":363,"x_min":54,"x_max":309,"o":"m 54 444 q 118 437 83 432 q 182 454 139 440 q 309 464 267 481 l 309 537 q 182 527 267 554 l 150 517 q 118 510 132 512 q 54 517 83 505 l 54 444 z "},"¡":{"ha":229,"x_min":54,"x_max":175,"o":"m 175 6 l 159 819 l 85 813 l 54 0 l 175 6 m 123 931 q 155 944 141 931 q 168 977 168 958 q 155 1008 168 995 q 123 1022 141 1022 q 90 1008 104 1022 q 77 977 77 995 q 90 944 77 958 q 123 931 104 931 z "},"¢":{"ha":603,"x_min":54,"x_max":549,"o":"m 125 490 q 130 567 125 530 q 155 656 138 618 q 311 762 201 762 q 334 761 321 762 l 208 252 q 139 370 159 290 q 127 436 131 401 q 125 490 125 463 m 477 345 q 422 259 457 291 q 311 218 378 218 q 271 222 290 218 l 399 739 q 477 636 451 708 l 549 642 q 416 809 512 764 l 457 975 l 391 981 l 389 981 l 351 829 q 311 832 331 832 q 123 741 193 832 q 54 490 54 648 q 90 298 54 378 q 190 180 125 218 l 146 0 l 216 0 l 254 155 q 311 149 281 149 q 459 198 397 149 q 549 339 522 248 l 477 345 z "},"£":{"ha":692,"x_min":54,"x_max":638,"o":"m 413 766 q 524 718 484 766 q 565 583 563 671 l 638 578 q 577 769 637 699 q 413 840 517 840 q 271 791 329 840 q 195 656 213 742 l 54 45 l 90 0 l 607 0 l 613 73 l 136 73 l 180 266 l 422 285 l 422 358 l 197 340 l 212 402 l 422 419 l 422 492 l 229 477 l 267 641 q 413 766 293 766 z "},"¤":{"ha":630,"x_min":54,"x_max":576,"o":"m 209 380 q 276 341 237 353 q 315 336 296 336 q 355 341 335 336 q 422 380 394 353 q 460 447 449 408 q 467 486 467 467 q 460 526 467 506 q 422 593 449 565 q 354 631 394 620 q 315 637 334 637 q 275 631 295 637 q 209 593 236 619 q 171 526 182 566 q 164 486 164 506 q 170 448 164 467 q 209 380 181 408 m 134 612 l 54 692 l 109 747 l 189 667 q 256 699 218 688 q 316 708 286 708 q 372 700 344 708 q 441 667 411 688 l 522 747 l 576 692 l 496 613 q 529 544 517 582 q 537 486 537 515 q 529 429 537 458 q 496 359 517 391 l 576 280 l 522 225 l 441 305 q 373 273 411 283 q 315 264 345 264 q 258 273 287 264 q 189 305 219 283 l 109 225 l 54 280 l 134 359 q 102 429 113 391 q 94 486 94 458 q 102 545 94 516 q 134 612 113 583 z "},"¥":{"ha":663,"x_min":54,"x_max":609,"o":"m 547 867 l 332 530 l 116 867 l 54 827 l 295 452 l 295 420 l 204 412 l 204 339 l 295 347 l 295 286 l 204 279 l 204 205 l 295 212 l 295 0 l 368 0 l 368 218 l 459 226 l 459 299 l 368 292 l 368 353 l 459 359 l 459 433 l 368 426 l 368 452 l 609 827 l 547 867 z "},"¦":{"ha":202,"x_min":54,"x_max":148,"o":"m 75 1042 l 54 787 l 127 787 l 148 1042 l 75 1042 m 75 153 l 54 -102 l 127 -102 l 148 153 l 75 153 z "},"§":{"ha":589,"x_min":54,"x_max":535,"o":"m 368 447 q 340 446 354 446 q 303 448 321 446 q 264 460 281 452 q 210 526 220 480 q 249 529 228 529 q 284 526 267 529 q 321 515 304 523 q 368 447 362 494 m 340 385 q 483 431 430 385 q 535 553 535 475 q 483 677 535 631 q 340 722 430 722 q 302 726 320 722 q 264 739 280 730 q 220 819 220 763 q 264 897 220 873 q 302 911 280 907 q 340 914 320 914 q 378 911 360 914 q 417 897 400 907 q 460 819 460 873 l 520 823 q 471 934 519 894 q 340 975 422 975 q 208 932 257 975 q 160 819 160 890 q 208 704 160 746 q 340 662 257 662 q 382 658 363 662 q 426 643 408 653 q 474 553 474 616 q 426 465 474 492 q 369 556 416 524 q 249 590 322 590 q 117 547 165 590 q 68 433 68 505 q 117 319 68 361 q 249 277 165 277 q 291 273 271 277 q 334 258 316 268 q 382 169 382 231 q 334 79 382 106 q 291 64 316 69 q 249 60 271 60 q 208 64 227 60 q 165 79 183 68 q 115 163 117 104 l 54 168 q 106 45 54 90 q 249 0 159 0 q 391 45 338 0 q 444 169 444 91 q 391 292 444 247 q 249 337 338 337 q 211 340 229 337 q 172 354 189 345 q 129 433 129 378 q 154 498 129 475 q 219 415 170 445 q 340 385 268 385 z "},"¨":{"ha":503,"x_min":54,"x_max":448,"o":"m 64 874 l 112 923 q 129 931 121 931 q 147 922 136 931 l 194 872 q 201 855 201 863 q 193 837 201 846 l 146 786 q 129 774 134 774 q 112 783 119 774 l 60 841 q 54 857 54 849 q 64 874 54 865 m 311 874 l 359 923 q 376 931 368 931 q 395 922 384 931 l 441 872 q 448 855 448 863 q 440 838 448 846 l 393 786 q 376 774 382 774 q 359 783 367 774 l 308 842 q 302 857 302 849 q 311 874 302 865 z "},"©":{"ha":721,"x_min":54,"x_max":667,"o":"m 360 840 q 180 749 244 840 q 113 486 113 654 q 180 224 113 319 q 360 134 244 134 q 541 224 477 134 q 608 486 608 319 q 541 749 608 654 q 360 840 477 840 m 360 75 q 132 191 214 75 q 54 486 54 300 q 132 783 54 673 q 360 899 214 899 q 589 783 507 899 q 667 486 667 673 q 589 191 667 300 q 360 75 507 75 m 526 376 q 467 281 508 314 q 367 247 425 247 q 241 309 287 247 q 195 477 195 370 q 241 645 195 583 q 367 707 287 707 q 467 673 425 707 q 526 578 508 640 l 526 578 l 478 574 q 442 632 465 611 q 367 659 412 659 q 262 589 293 659 q 245 528 250 563 q 241 477 241 504 q 245 425 241 450 q 262 365 250 391 q 367 294 293 294 q 441 321 412 294 q 478 379 465 342 l 526 376 z "},"ª":{"ha":439,"x_min":0,"x_max":0,"o":""},"«":{"ha":386,"x_min":54,"x_max":332,"o":"m 260 595 l 55 538 l 54 465 l 275 400 l 273 425 l 138 465 l 139 538 l 262 572 l 260 595 m 152 529 l 152 473 l 332 420 l 327 475 l 243 500 l 323 523 l 319 576 l 152 529 z "},"¬":{"ha":678,"x_min":54,"x_max":624,"o":"m 54 520 l 624 520 l 624 187 l 623 186 l 557 186 l 557 452 l 54 452 l 54 520 z "},"®":{"ha":719,"x_min":54,"x_max":665,"o":"m 361 522 q 438 543 411 522 q 465 604 465 565 q 438 665 465 644 q 361 687 411 687 l 269 687 l 269 522 l 361 522 m 224 242 l 224 732 l 361 732 q 470 698 430 732 q 510 604 510 663 q 450 497 510 530 q 461 490 456 493 l 465 487 l 467 486 l 468 484 l 473 480 l 475 478 l 478 475 l 484 469 l 484 469 l 490 460 l 492 458 l 494 454 l 495 452 l 497 448 l 499 443 l 503 435 q 504 429 503 433 l 505 427 l 507 420 l 508 414 l 509 408 l 509 403 q 510 393 510 393 l 510 284 q 519 251 510 266 l 524 243 l 477 243 l 475 245 q 465 284 465 263 l 465 393 l 465 395 l 465 404 l 464 408 l 463 412 l 462 416 l 462 418 l 460 422 l 458 427 l 458 430 l 456 432 l 455 435 l 454 437 l 450 443 l 445 449 l 440 453 l 439 454 l 436 456 q 427 462 433 458 l 425 464 l 421 465 q 412 469 415 468 l 412 469 l 407 471 l 401 472 l 399 473 l 391 474 l 387 475 l 381 475 l 377 476 l 374 476 l 371 476 l 369 476 l 361 477 l 269 477 l 269 242 l 224 242 m 359 839 q 179 748 243 839 q 113 487 113 654 q 179 227 113 319 q 359 136 243 136 q 539 227 475 136 q 606 487 606 319 q 539 748 606 654 q 359 839 475 839 m 359 77 q 132 192 213 77 q 54 487 54 301 q 132 782 54 673 q 359 898 213 898 q 587 782 506 898 q 665 487 665 673 q 587 192 665 301 q 359 77 506 77 z "},"¯":{"ha":454,"x_min":0,"x_max":0,"o":""},"°":{"ha":486,"x_min":54,"x_max":431,"o":"m 243 930 q 143 889 185 930 q 102 789 102 848 q 143 689 102 730 q 243 648 184 648 q 343 689 302 648 q 384 789 384 730 q 343 889 384 848 q 243 930 302 930 m 243 978 q 376 923 321 978 q 431 789 431 867 q 376 656 431 712 q 242 601 320 601 q 109 656 163 601 q 54 789 54 711 q 110 923 54 868 q 243 978 165 978 z "},"±":{"ha":688,"x_min":0,"x_max":0,"o":""},"²":{"ha":688,"x_min":0,"x_max":0,"o":""},"³":{"ha":688,"x_min":0,"x_max":0,"o":""},"´":{"ha":254,"x_min":54,"x_max":200,"o":"m 54 789 l 122 761 l 200 1004 l 132 1032 l 54 789 z "},"µ":{"ha":800,"x_min":0,"x_max":0,"o":""},"¶":{"ha":675,"x_min":54,"x_max":621,"o":"m 621 973 l 621 926 l 535 926 l 535 0 l 479 0 l 479 926 l 367 926 l 367 0 l 310 0 l 310 500 q 123 570 192 506 q 54 736 54 634 q 127 908 54 843 q 321 973 200 973 l 621 973 z "},"·":{"ha":235,"x_min":54,"x_max":181,"o":"m 117 642 q 73 623 92 642 q 54 578 54 605 q 73 534 54 553 q 117 515 92 515 q 162 534 144 515 q 181 578 181 553 q 162 623 181 605 q 117 642 144 642 z "},"∙":{"ha":235,"x_min":54,"x_max":181,"o":"m 117 642 q 73 623 92 642 q 54 578 54 605 q 73 534 54 553 q 117 515 92 515 q 162 534 144 515 q 181 578 181 553 q 162 623 181 605 q 117 642 144 642 z "},"¸":{"ha":377,"x_min":54,"x_max":323,"o":"m 323 -185 q 286 -282 323 -246 q 189 -319 250 -319 q 94 -286 130 -319 q 54 -197 58 -253 l 125 -191 q 189 -248 128 -248 q 252 -185 252 -248 q 189 -122 252 -122 l 153 -87 l 153 2 l 224 2 l 224 -55 q 296 -99 270 -65 q 323 -185 323 -134 z "},"¹":{"ha":688,"x_min":0,"x_max":0,"o":""},"º":{"ha":487,"x_min":0,"x_max":0,"o":""},"»":{"ha":386,"x_min":54,"x_max":332,"o":"m 124 572 l 246 538 l 247 465 l 113 425 l 111 400 l 332 465 l 331 538 l 125 595 l 124 572 m 66 576 l 62 523 l 142 500 l 58 475 l 54 420 l 234 473 l 233 529 l 66 576 z "},"¼":{"ha":1158,"x_min":0,"x_max":0,"o":""},"½":{"ha":1332,"x_min":0,"x_max":0,"o":""},"¾":{"ha":1158,"x_min":0,"x_max":0,"o":""},"¿":{"ha":614,"x_min":54,"x_max":560,"o":"m 307 0 q 490 66 422 0 q 560 248 558 133 l 487 254 q 440 120 486 167 q 307 73 393 73 q 174 121 220 73 q 127 256 127 168 q 174 393 127 345 q 307 439 220 439 l 344 439 l 344 813 l 271 819 l 271 511 q 112 433 170 500 q 54 256 54 366 q 122 69 54 138 q 307 0 191 0 m 307 931 q 340 945 326 931 q 353 977 353 958 q 340 1009 353 996 q 307 1022 326 1022 q 275 1009 288 1022 q 262 977 262 996 q 275 945 262 958 q 307 931 288 931 z "},"À":{"ha":808,"x_min":54,"x_max":753,"o":"m 368 980 l 54 0 l 125 0 l 229 327 l 578 327 l 683 0 l 753 0 l 441 975 l 371 980 l 368 980 m 404 871 l 555 397 l 252 397 l 404 871 m 385 1176 l 286 1168 l 376 1042 l 433 1047 l 385 1176 z "},"Á":{"ha":808,"x_min":54,"x_max":753,"o":"m 368 980 l 54 0 l 125 0 l 229 327 l 578 327 l 683 0 l 753 0 l 441 975 l 371 980 l 368 980 m 404 871 l 555 397 l 252 397 l 404 871 m 422 1176 l 375 1047 l 431 1042 l 522 1168 l 422 1176 z "},"Â":{"ha":808,"x_min":54,"x_max":753,"o":"m 368 980 l 54 0 l 125 0 l 229 327 l 578 327 l 683 0 l 753 0 l 441 975 l 371 980 l 368 980 m 404 871 l 555 397 l 252 397 l 404 871 m 406 1187 l 406 1187 l 406 1187 l 308 1101 l 325 1057 l 406 1121 l 486 1057 l 504 1101 l 406 1187 z "},"Ã":{"ha":808,"x_min":54,"x_max":753,"o":"m 368 980 l 54 0 l 125 0 l 229 327 l 578 327 l 683 0 l 753 0 l 441 975 l 371 980 l 368 980 m 404 871 l 555 397 l 252 397 l 404 871 m 519 1149 q 463 1132 494 1128 q 406 1149 444 1133 l 392 1155 l 378 1160 q 350 1168 362 1166 q 294 1154 319 1173 l 288 1087 l 288 1084 q 345 1102 313 1105 q 401 1085 364 1101 l 415 1080 l 429 1074 q 457 1066 445 1068 q 514 1079 489 1061 l 519 1149 z "},"Ä":{"ha":808,"x_min":54,"x_max":753,"o":"m 368 980 l 54 0 l 125 0 l 229 327 l 578 327 l 683 0 l 753 0 l 441 975 l 371 980 l 368 980 m 404 871 l 555 397 l 252 397 l 404 871 m 481 1158 q 452 1146 464 1158 q 440 1117 440 1134 q 452 1088 440 1100 q 481 1076 464 1076 q 509 1088 498 1076 q 522 1117 522 1100 q 509 1146 522 1134 q 481 1158 498 1158 m 327 1158 q 298 1146 310 1158 q 286 1117 286 1134 q 298 1088 286 1100 q 327 1076 310 1076 q 355 1088 344 1076 q 368 1117 368 1100 q 355 1146 368 1134 q 327 1158 344 1158 z "},"Å":{"ha":808,"x_min":54,"x_max":753,"o":"m 368 980 l 54 0 l 125 0 l 229 327 l 578 327 l 683 0 l 753 0 l 441 975 l 371 980 l 368 980 m 404 871 l 555 397 l 252 397 l 404 871 m 406 1076 q 382 1086 392 1076 q 372 1109 372 1095 q 382 1133 372 1123 q 406 1143 392 1143 q 429 1133 420 1143 q 439 1109 439 1123 q 429 1086 439 1095 q 406 1076 420 1076 m 481 1109 q 458 1162 481 1140 q 406 1184 437 1184 q 353 1162 374 1184 q 331 1109 331 1140 q 353 1056 331 1078 q 406 1034 374 1034 q 458 1056 437 1034 q 481 1109 481 1078 z "},"Æ":{"ha":968,"x_min":54,"x_max":913,"o":"m 368 981 l 368 981 l 368 981 l 54 0 l 125 0 l 229 328 l 368 328 l 368 0 l 905 0 l 905 71 l 439 71 l 439 459 l 872 459 l 878 530 l 439 530 l 439 910 l 908 910 l 913 981 l 368 981 m 368 762 l 368 397 l 252 397 l 368 762 z "},"Ç":{"ha":807,"x_min":54,"x_max":753,"o":"m 418 68 q 203 176 280 68 q 125 488 125 288 q 203 800 125 688 q 418 908 280 908 q 596 842 526 908 q 681 705 651 791 l 753 711 q 627 909 713 840 q 418 978 541 978 q 146 840 244 978 q 54 488 54 710 q 146 136 54 266 q 376 0 231 16 l 376 -44 l 404 -71 q 453 -120 453 -71 q 404 -169 453 -169 q 354 -125 357 -169 l 299 -130 q 330 -198 302 -173 q 404 -224 358 -224 q 479 -195 451 -224 q 508 -120 508 -168 q 487 -54 508 -80 q 431 -19 467 -27 l 431 -2 q 631 71 549 2 q 753 266 715 140 l 681 271 q 596 134 651 184 q 418 68 526 68 z "},"È":{"ha":654,"x_min":54,"x_max":600,"o":"m 54 981 l 54 0 l 590 0 l 590 71 l 125 71 l 125 459 l 557 459 l 563 530 l 125 530 l 125 910 l 594 910 l 600 981 l 54 981 m 310 1176 l 211 1168 l 301 1043 l 358 1047 l 310 1176 z "},"É":{"ha":654,"x_min":54,"x_max":600,"o":"m 54 981 l 54 0 l 590 0 l 590 71 l 125 71 l 125 459 l 557 459 l 563 530 l 125 530 l 125 910 l 594 910 l 600 981 l 54 981 m 348 1176 l 300 1047 l 356 1043 l 447 1168 l 348 1176 z "},"Ê":{"ha":654,"x_min":54,"x_max":600,"o":"m 54 981 l 54 0 l 590 0 l 590 71 l 125 71 l 125 459 l 557 459 l 563 530 l 125 530 l 125 910 l 594 910 l 600 981 l 54 981 m 329 1188 l 329 1187 l 329 1188 l 231 1101 l 248 1057 l 329 1121 l 410 1057 l 427 1101 l 329 1188 z "},"Ë":{"ha":654,"x_min":54,"x_max":600,"o":"m 54 981 l 54 0 l 590 0 l 590 71 l 125 71 l 125 459 l 557 459 l 563 530 l 125 530 l 125 910 l 594 910 l 600 981 l 54 981 m 404 1158 q 375 1146 387 1158 q 363 1117 363 1134 q 375 1088 363 1101 q 404 1076 387 1076 q 433 1088 420 1076 q 445 1117 445 1101 q 433 1146 445 1134 q 404 1158 420 1158 m 250 1158 q 221 1146 233 1158 q 209 1117 209 1134 q 221 1088 209 1101 q 250 1076 233 1076 q 279 1088 267 1076 q 291 1117 291 1101 q 279 1146 291 1134 q 250 1158 267 1158 z "},"Ì":{"ha":262,"x_min":54,"x_max":208,"o":"m 153 1176 l 54 1168 l 145 1043 l 201 1047 l 153 1176 m 137 981 l 137 0 l 208 0 l 208 975 l 140 981 l 137 981 z "},"Í":{"ha":262,"x_min":54,"x_max":208,"o":"m 109 1176 l 60 1047 l 117 1043 l 208 1168 l 109 1176 m 54 981 l 54 0 l 125 0 l 125 975 l 57 981 l 54 981 z "},"Î":{"ha":304,"x_min":54,"x_max":250,"o":"m 153 1188 l 153 1187 l 152 1188 l 54 1101 l 72 1057 l 153 1121 l 233 1057 l 250 1101 l 153 1188 m 117 981 l 117 0 l 187 0 l 187 975 l 120 981 l 117 981 z "},"Ï":{"ha":345,"x_min":54,"x_max":290,"o":"m 249 1158 q 220 1146 232 1158 q 208 1117 208 1134 q 220 1088 208 1100 q 249 1076 232 1076 q 278 1088 266 1076 q 290 1117 290 1100 q 278 1146 290 1134 q 249 1158 266 1158 m 95 1158 q 66 1146 78 1158 q 54 1117 54 1134 q 66 1088 54 1100 q 95 1076 78 1076 q 124 1088 112 1076 q 136 1117 136 1100 q 124 1146 136 1134 q 95 1158 112 1158 m 139 981 l 139 0 l 210 0 l 210 975 l 142 981 l 139 981 z "},"Ð":{"ha":852,"x_min":54,"x_max":798,"o":"m 649 178 q 434 71 572 71 l 207 71 l 207 466 l 294 466 l 294 515 l 207 515 l 207 910 l 434 910 q 649 802 572 910 q 728 490 728 690 q 649 178 728 290 m 707 842 q 434 981 608 981 l 137 981 l 137 515 l 58 515 l 54 466 l 137 466 l 137 0 l 434 0 q 707 138 608 0 q 798 490 798 268 q 707 842 798 713 z "},"Ñ":{"ha":652,"x_min":54,"x_max":597,"o":"m 54 981 l 54 0 l 125 0 l 125 835 l 527 0 l 597 0 l 597 970 l 527 977 l 527 146 l 127 975 l 57 981 l 54 981 m 441 1150 q 385 1132 416 1129 q 328 1149 366 1134 l 314 1155 l 300 1160 q 272 1168 284 1166 q 216 1154 241 1173 l 210 1087 l 210 1084 q 267 1103 235 1105 q 323 1086 286 1101 l 337 1080 l 351 1074 q 379 1067 367 1069 q 436 1080 411 1062 l 441 1150 z "},"Ò":{"ha":838,"x_min":54,"x_max":783,"o":"m 633 178 q 418 71 557 71 q 203 178 281 71 q 125 490 125 290 q 203 802 125 690 q 418 910 281 910 q 633 802 557 910 q 713 490 713 690 q 633 178 713 290 m 418 981 q 146 843 244 981 q 54 490 54 713 q 146 138 54 268 q 418 0 244 0 q 691 138 593 0 q 783 490 783 268 q 691 843 783 713 q 418 981 593 981 m 300 1168 l 391 1043 l 448 1048 l 400 1177 l 300 1168 z "},"Ó":{"ha":838,"x_min":54,"x_max":783,"o":"m 633 178 q 418 71 557 71 q 203 178 281 71 q 125 490 125 290 q 203 802 125 690 q 418 910 281 910 q 633 802 557 910 q 713 490 713 690 q 633 178 713 290 m 418 981 q 146 843 244 981 q 54 490 54 713 q 146 138 54 268 q 418 0 244 0 q 691 138 593 0 q 783 490 783 268 q 691 843 783 713 q 418 981 593 981 m 537 1168 l 446 1043 l 390 1048 l 437 1177 l 537 1168 z "},"Ô":{"ha":838,"x_min":54,"x_max":783,"o":"m 633 178 q 418 71 557 71 q 203 178 281 71 q 125 490 125 290 q 203 802 125 690 q 418 910 281 910 q 633 802 557 910 q 713 490 713 690 q 633 178 713 290 m 418 981 q 146 843 244 981 q 54 490 54 713 q 146 138 54 268 q 418 0 244 0 q 691 138 593 0 q 783 490 783 268 q 691 843 783 713 q 418 981 593 981 m 517 1101 l 419 1188 l 418 1187 l 418 1188 l 321 1101 l 338 1057 l 418 1122 l 499 1057 l 517 1101 z "},"Õ":{"ha":838,"x_min":54,"x_max":783,"o":"m 633 178 q 418 71 557 71 q 203 178 281 71 q 125 490 125 290 q 203 802 125 690 q 418 910 281 910 q 633 802 557 910 q 713 490 713 690 q 633 178 713 290 m 418 981 q 146 843 244 981 q 54 490 54 713 q 146 138 54 268 q 418 0 244 0 q 691 138 593 0 q 783 490 783 268 q 691 843 783 713 q 418 981 593 981 m 532 1150 q 476 1132 507 1129 q 419 1149 456 1134 l 406 1155 l 391 1160 q 363 1168 375 1166 q 307 1154 332 1173 l 301 1087 l 301 1084 q 357 1103 326 1105 q 414 1086 377 1101 l 428 1080 l 442 1074 q 471 1067 458 1069 q 527 1080 502 1062 l 532 1150 z "},"Ö":{"ha":838,"x_min":54,"x_max":783,"o":"m 633 178 q 418 71 557 71 q 203 178 281 71 q 125 490 125 290 q 203 802 125 690 q 418 910 281 910 q 633 802 557 910 q 713 490 713 690 q 633 178 713 290 m 418 981 q 146 843 244 981 q 54 490 54 713 q 146 138 54 268 q 418 0 244 0 q 691 138 593 0 q 783 490 783 268 q 691 843 783 713 q 418 981 593 981 m 494 1158 q 465 1146 477 1158 q 453 1118 453 1135 q 465 1088 453 1101 q 494 1076 477 1076 q 523 1088 511 1076 q 534 1118 534 1101 q 523 1146 534 1135 q 494 1158 511 1158 m 340 1158 q 311 1146 323 1158 q 299 1118 299 1135 q 311 1088 299 1101 q 340 1076 323 1076 q 368 1088 357 1076 q 380 1118 380 1101 q 368 1146 380 1135 q 340 1158 357 1158 z "},"×":{"ha":355,"x_min":54,"x_max":301,"o":"m 249 639 l 301 587 l 229 526 l 286 458 l 235 407 l 174 478 l 106 421 l 54 473 l 126 534 l 68 602 l 121 653 l 182 581 l 249 639 z "},"Ø":{"ha":838,"x_min":54,"x_max":783,"o":"m 633 180 q 418 72 557 72 q 203 180 281 72 q 125 492 125 292 q 203 804 125 692 q 418 912 281 912 q 633 804 557 912 q 713 492 713 692 q 633 180 713 292 m 418 983 q 146 844 244 983 q 54 492 54 715 q 146 140 54 269 q 418 1 244 1 q 691 140 593 1 q 783 492 783 269 q 691 844 783 715 q 418 983 593 983 m 508 1093 l 256 -109 l 326 -109 l 577 1087 l 511 1093 l 508 1093 z "},"Ù":{"ha":758,"x_min":54,"x_max":703,"o":"m 633 363 q 566 147 633 224 q 378 71 500 71 q 191 147 258 71 q 125 363 125 224 l 125 975 l 54 980 l 54 363 q 142 98 54 195 q 378 0 229 0 q 616 98 529 0 q 703 363 703 195 l 703 974 l 633 979 l 633 363 m 260 1168 l 351 1042 l 408 1046 l 360 1175 l 260 1168 z "},"Ú":{"ha":758,"x_min":54,"x_max":703,"o":"m 633 363 q 566 147 633 224 q 378 71 500 71 q 191 147 258 71 q 125 363 125 224 l 125 975 l 54 980 l 54 363 q 142 98 54 195 q 378 0 229 0 q 616 98 529 0 q 703 363 703 195 l 703 974 l 633 979 l 633 363 m 497 1168 l 406 1042 l 350 1046 l 397 1175 l 497 1168 z "},"Û":{"ha":758,"x_min":54,"x_max":703,"o":"m 633 363 q 566 147 633 224 q 378 71 500 71 q 191 147 258 71 q 125 363 125 224 l 125 975 l 54 980 l 54 363 q 142 98 54 195 q 378 0 229 0 q 616 98 529 0 q 703 363 703 195 l 703 974 l 633 979 l 633 363 m 477 1101 l 379 1187 l 378 1187 l 378 1187 l 281 1101 l 298 1056 l 378 1120 l 459 1056 l 477 1101 z "},"Ü":{"ha":758,"x_min":54,"x_max":703,"o":"m 633 363 q 566 147 633 224 q 378 71 500 71 q 191 147 258 71 q 125 363 125 224 l 125 975 l 54 980 l 54 363 q 142 98 54 195 q 378 0 229 0 q 616 98 529 0 q 703 363 703 195 l 703 974 l 633 979 l 633 363 m 454 1158 q 425 1145 437 1158 q 413 1116 413 1133 q 425 1088 413 1099 q 454 1076 437 1076 q 483 1088 471 1076 q 494 1116 494 1099 q 483 1145 494 1133 q 454 1158 471 1158 m 300 1158 q 271 1145 283 1158 q 259 1116 259 1133 q 271 1088 259 1099 q 300 1076 283 1076 q 329 1088 317 1076 q 340 1116 340 1099 q 329 1145 340 1133 q 300 1158 317 1158 z "},"Ý":{"ha":779,"x_min":54,"x_max":725,"o":"m 389 583 l 134 981 l 54 975 l 353 508 l 353 0 l 424 0 l 424 508 l 725 979 l 646 985 l 389 583 m 408 1177 l 361 1048 l 417 1044 l 508 1169 l 408 1177 z "},"Þ":{"ha":524,"x_min":54,"x_max":470,"o":"m 104 218 l 104 761 l 110 761 q 340 690 258 761 q 420 490 420 619 q 340 290 420 360 q 110 218 258 218 l 104 218 m 104 810 l 104 975 l 54 979 l 54 0 l 104 0 l 104 170 l 110 170 q 373 256 277 170 q 470 490 470 341 q 373 724 470 638 q 110 810 277 810 l 104 810 z "},"ß":{"ha":718,"x_min":54,"x_max":663,"o":"m 500 559 q 625 779 625 627 q 543 970 625 901 q 319 1041 460 1041 q 125 947 197 1041 q 54 690 54 852 l 54 6 l 127 0 l 127 690 q 134 768 127 730 q 159 860 141 821 q 319 968 206 968 q 490 918 429 968 q 551 779 551 869 q 490 640 551 690 q 319 591 429 591 l 273 591 l 267 517 l 327 517 q 521 462 452 517 q 590 304 590 406 q 521 146 590 202 q 327 90 452 90 l 269 90 l 263 17 l 327 17 q 573 94 483 17 q 663 304 663 171 q 621 460 663 394 q 500 559 578 525 z "},"à":{"ha":623,"x_min":54,"x_max":569,"o":"m 311 71 q 155 176 201 71 q 130 265 138 214 q 125 342 125 302 q 130 419 125 382 q 155 509 138 470 q 311 614 201 614 q 468 509 421 614 q 493 419 486 470 q 498 342 498 382 l 498 342 q 493 265 498 302 q 468 176 486 214 q 311 71 421 71 m 505 679 l 498 591 l 498 590 q 444 645 475 624 l 436 651 q 311 684 382 684 q 189 652 243 684 l 184 649 l 178 645 q 87 528 119 605 q 54 342 54 449 q 87 157 54 235 q 178 39 119 79 l 182 37 l 187 33 q 311 0 241 0 q 441 37 385 0 l 445 39 q 498 94 475 60 l 498 90 l 505 0 l 569 0 l 569 684 l 505 679 m 193 872 l 284 747 l 340 751 l 292 880 l 193 872 z "},"á":{"ha":623,"x_min":54,"x_max":569,"o":"m 311 71 q 155 176 201 71 q 130 265 138 214 q 125 342 125 302 q 130 419 125 382 q 155 509 138 470 q 311 614 201 614 q 468 509 421 614 q 493 419 486 470 q 498 342 498 382 l 498 342 q 493 265 498 302 q 468 176 486 214 q 311 71 421 71 m 505 679 l 498 591 l 498 590 q 444 645 475 624 l 436 651 q 311 684 382 684 q 189 652 243 684 l 184 649 l 178 645 q 87 528 119 605 q 54 342 54 449 q 87 157 54 235 q 178 39 119 79 l 182 37 l 187 33 q 311 0 241 0 q 441 37 385 0 l 445 39 q 498 94 475 60 l 498 90 l 505 0 l 569 0 l 569 684 l 505 679 m 430 872 l 339 747 l 283 751 l 330 880 l 430 872 z "},"â":{"ha":623,"x_min":54,"x_max":569,"o":"m 311 71 q 155 176 201 71 q 130 265 138 214 q 125 342 125 302 q 130 419 125 382 q 155 509 138 470 q 311 614 201 614 q 468 509 421 614 q 493 419 486 470 q 498 342 498 382 l 498 342 q 493 265 498 302 q 468 176 486 214 q 311 71 421 71 m 505 679 l 498 591 l 498 590 q 444 645 475 624 l 436 651 q 311 684 382 684 q 189 652 243 684 l 184 649 l 178 645 q 87 528 119 605 q 54 342 54 449 q 87 157 54 235 q 178 39 119 79 l 182 37 l 187 33 q 311 0 241 0 q 441 37 385 0 l 445 39 q 498 94 475 60 l 498 90 l 505 0 l 569 0 l 569 684 l 505 679 m 410 805 l 311 892 l 311 891 l 311 892 l 214 805 l 231 760 l 311 825 l 392 760 l 410 805 z "},"ã":{"ha":623,"x_min":54,"x_max":569,"o":"m 311 71 q 155 176 201 71 q 130 265 138 214 q 125 342 125 302 q 130 419 125 382 q 155 509 138 470 q 311 614 201 614 q 468 509 421 614 q 493 419 486 470 q 498 342 498 382 l 498 342 q 493 265 498 302 q 468 176 486 214 q 311 71 421 71 m 505 679 l 498 591 l 498 590 q 444 645 475 624 l 436 651 q 311 684 382 684 q 189 652 243 684 l 184 649 l 178 645 q 87 528 119 605 q 54 342 54 449 q 87 157 54 235 q 178 39 119 79 l 182 37 l 187 33 q 311 0 241 0 q 441 37 385 0 l 445 39 q 498 94 475 60 l 498 90 l 505 0 l 569 0 l 569 684 l 505 679 m 425 853 q 369 836 400 833 q 312 853 349 838 l 298 859 l 284 864 q 256 871 268 869 q 199 858 224 876 l 194 791 l 194 788 q 250 806 219 809 q 307 789 270 804 l 321 783 l 335 778 q 363 770 351 772 q 420 783 395 766 l 425 853 z "},"ä":{"ha":623,"x_min":54,"x_max":569,"o":"m 311 71 q 155 176 201 71 q 130 265 138 214 q 125 342 125 302 q 130 419 125 382 q 155 509 138 470 q 311 614 201 614 q 468 509 421 614 q 493 419 486 470 q 498 342 498 382 l 498 342 q 493 265 498 302 q 468 176 486 214 q 311 71 421 71 m 505 679 l 498 591 l 498 590 q 444 645 475 624 l 436 651 q 311 684 382 684 q 189 652 243 684 l 184 649 l 178 645 q 87 528 119 605 q 54 342 54 449 q 87 157 54 235 q 178 39 119 79 l 182 37 l 187 33 q 311 0 241 0 q 441 37 385 0 l 445 39 q 498 94 475 60 l 498 90 l 505 0 l 569 0 l 569 684 l 505 679 m 387 862 q 357 850 370 862 q 346 821 346 838 q 357 792 346 804 q 387 780 370 780 q 415 792 404 780 q 427 821 427 804 q 415 850 427 838 q 387 862 404 862 m 233 862 q 203 850 216 862 q 191 821 191 838 q 203 792 191 804 q 233 780 216 780 q 261 792 250 780 q 273 821 273 804 q 261 850 273 838 q 233 862 250 862 z "},"å":{"ha":623,"x_min":54,"x_max":569,"o":"m 311 71 q 155 176 201 71 q 130 265 138 214 q 125 342 125 302 q 130 419 125 382 q 155 509 138 470 q 311 614 201 614 q 468 509 421 614 q 493 419 486 470 q 498 342 498 382 l 498 342 q 493 265 498 302 q 468 176 486 214 q 311 71 421 71 m 505 679 l 498 591 l 498 590 q 444 645 475 624 l 436 651 q 311 684 382 684 q 189 652 243 684 l 184 649 l 178 645 q 87 528 119 605 q 54 342 54 449 q 87 157 54 235 q 178 39 119 79 l 182 37 l 187 33 q 311 0 241 0 q 441 37 385 0 l 445 39 q 498 94 475 60 l 498 90 l 505 0 l 569 0 l 569 684 l 505 679 m 311 780 q 288 789 298 780 q 278 813 278 800 q 288 837 278 827 q 311 846 298 846 q 335 837 326 846 q 345 813 345 827 q 335 789 345 800 q 311 780 326 780 m 387 813 q 365 866 387 844 q 311 888 342 888 q 258 866 280 888 q 237 813 237 844 q 258 760 237 782 q 311 738 280 738 q 365 760 342 738 q 387 813 387 782 z "},"æ":{"ha":1067,"x_min":54,"x_max":1013,"o":"m 570 377 q 581 452 573 418 q 610 530 591 497 q 756 614 658 614 q 902 530 854 614 q 931 452 921 497 q 942 377 939 418 l 570 377 m 498 342 q 493 265 498 302 q 468 176 486 214 q 311 71 421 71 q 155 176 201 71 q 130 265 138 214 q 125 342 125 302 q 130 419 125 382 q 155 509 138 470 q 311 614 201 614 q 468 509 421 614 q 493 419 486 470 q 498 342 498 382 l 498 342 m 1013 342 q 944 592 1013 500 q 756 684 875 684 q 569 593 637 684 l 569 684 l 505 679 l 498 591 l 498 590 q 444 645 475 624 l 436 651 q 311 684 382 684 q 189 652 243 684 l 184 649 l 178 645 q 87 528 119 605 q 54 342 54 449 q 87 157 54 235 q 178 39 119 79 l 182 37 l 187 33 q 311 0 241 0 q 441 37 385 0 l 445 39 q 498 94 475 60 l 498 90 l 505 0 l 569 0 l 569 91 q 756 0 637 0 q 919 62 854 0 q 1004 237 983 124 l 934 243 q 884 130 919 173 q 756 71 837 71 q 610 155 658 71 q 581 231 591 187 q 570 307 573 267 l 1013 307 l 1013 342 z "},"ç":{"ha":603,"x_min":54,"x_max":549,"o":"m 549 191 q 459 50 522 99 q 311 -1 397 -1 q 123 92 193 -1 q 54 342 54 183 q 123 591 54 500 q 311 684 193 684 q 459 633 397 684 q 549 493 522 584 l 477 487 q 422 573 457 541 q 311 613 378 613 q 155 508 201 613 q 130 418 138 469 q 125 342 125 381 q 130 264 125 302 q 155 175 138 214 q 311 70 201 70 q 422 110 378 70 q 477 197 457 142 l 549 191 m 405 -118 q 377 -193 405 -165 q 301 -221 349 -221 q 229 -196 256 -221 q 198 -127 201 -170 l 252 -123 q 301 -166 254 -166 q 351 -118 351 -166 q 301 -69 351 -69 l 274 -42 l 274 26 l 329 26 l 329 -18 q 385 -52 364 -25 q 405 -118 405 -79 z "},"è":{"ha":623,"x_min":54,"x_max":569,"o":"m 294 880 l 195 872 l 286 747 l 342 751 l 294 880 m 125 377 q 136 452 128 418 q 165 530 146 497 q 311 614 214 614 q 458 530 410 614 q 486 452 476 497 q 497 377 494 418 l 125 377 m 569 342 q 500 592 569 500 q 311 684 431 684 q 123 592 193 684 q 54 342 54 500 q 123 92 54 184 q 311 0 193 0 q 474 62 410 0 q 559 237 539 124 l 489 243 q 440 130 475 173 q 311 71 392 71 q 165 155 214 71 q 136 231 146 187 q 125 307 128 267 l 569 307 l 569 342 z "},"é":{"ha":623,"x_min":54,"x_max":569,"o":"m 332 880 l 285 751 l 341 747 l 431 872 l 332 880 m 125 377 q 136 452 128 418 q 165 530 146 497 q 311 614 214 614 q 458 530 410 614 q 486 452 476 497 q 497 377 494 418 l 125 377 m 569 342 q 500 592 569 500 q 311 684 431 684 q 123 592 193 684 q 54 342 54 500 q 123 92 54 184 q 311 0 193 0 q 474 62 410 0 q 559 237 539 124 l 489 243 q 440 130 475 173 q 311 71 392 71 q 165 155 214 71 q 136 231 146 187 q 125 307 128 267 l 569 307 l 569 342 z "},"ê":{"ha":623,"x_min":54,"x_max":569,"o":"m 313 892 l 313 891 l 313 892 l 216 805 l 233 760 l 313 825 l 394 760 l 412 805 l 313 892 m 125 377 q 136 452 128 418 q 165 530 146 497 q 311 614 214 614 q 458 530 410 614 q 486 452 476 497 q 497 377 494 418 l 125 377 m 569 342 q 500 592 569 500 q 311 684 431 684 q 123 592 193 684 q 54 342 54 500 q 123 92 54 184 q 311 0 193 0 q 474 62 410 0 q 559 237 539 124 l 489 243 q 440 130 475 173 q 311 71 392 71 q 165 155 214 71 q 136 231 146 187 q 125 307 128 267 l 569 307 l 569 342 z "},"ë":{"ha":623,"x_min":54,"x_max":569,"o":"m 389 862 q 359 850 372 862 q 348 821 348 838 q 359 792 348 804 q 389 780 372 780 q 417 792 406 780 q 429 821 429 804 q 417 850 429 838 q 389 862 406 862 m 235 862 q 205 850 218 862 q 193 821 193 838 q 205 792 193 804 q 235 780 218 780 q 263 792 252 780 q 275 821 275 804 q 263 850 275 838 q 235 862 252 862 m 125 377 q 136 452 128 418 q 165 530 146 497 q 311 614 214 614 q 458 530 410 614 q 486 452 476 497 q 497 377 494 418 l 125 377 m 569 342 q 500 592 569 500 q 311 684 431 684 q 123 592 193 684 q 54 342 54 500 q 123 92 54 184 q 311 0 193 0 q 474 62 410 0 q 559 237 539 124 l 489 243 q 440 130 475 173 q 311 71 392 71 q 165 155 214 71 q 136 231 146 187 q 125 307 128 267 l 569 307 l 569 342 z "},"ì":{"ha":262,"x_min":54,"x_max":208,"o":"m 153 879 l 54 871 l 145 745 l 201 750 l 153 879 m 137 0 l 208 0 l 208 677 l 137 683 l 137 0 z "},"í":{"ha":262,"x_min":54,"x_max":208,"o":"m 109 879 l 60 750 l 117 745 l 208 871 l 109 879 m 54 0 l 125 0 l 125 677 l 54 683 l 54 0 z "},"î":{"ha":304,"x_min":54,"x_max":250,"o":"m 153 890 l 153 890 l 152 890 l 54 804 l 72 760 l 153 824 l 233 760 l 250 804 l 153 890 m 117 0 l 187 0 l 187 677 l 117 683 l 117 0 z "},"ï":{"ha":345,"x_min":54,"x_max":290,"o":"m 249 861 q 220 848 232 861 q 208 820 208 837 q 220 791 208 803 q 249 779 232 779 q 278 791 266 779 q 290 820 290 803 q 278 848 290 837 q 249 861 266 861 m 95 861 q 66 848 78 861 q 54 820 54 837 q 66 791 54 803 q 95 779 78 779 q 124 791 112 779 q 136 820 136 803 q 124 848 136 837 q 95 861 112 861 m 139 0 l 210 0 l 210 677 l 139 683 l 139 0 z "},"ð":{"ha":596,"x_min":54,"x_max":542,"o":"m 427 251 q 409 184 422 212 q 298 110 375 110 q 187 184 221 110 q 169 251 174 213 q 164 316 164 281 q 169 380 164 351 q 187 448 174 419 q 298 522 221 522 q 409 448 375 522 q 427 380 422 419 q 432 316 432 351 q 427 251 432 281 m 422 798 q 82 979 298 971 l 58 980 l 66 870 l 85 869 q 239 823 173 865 l 178 770 l 198 720 l 284 789 q 332 734 309 766 q 392 613 368 684 q 298 632 349 632 q 120 547 185 632 q 54 316 54 462 q 120 85 54 170 q 298 0 185 0 q 476 85 411 0 q 542 316 542 170 l 542 338 q 422 798 542 628 z "},"ñ":{"ha":600,"x_min":54,"x_max":545,"o":"m 372 673 l 366 675 q 300 684 335 684 q 233 675 264 684 l 227 673 l 221 671 q 123 587 161 648 l 117 678 l 54 684 l 54 0 l 125 0 l 125 360 q 132 437 126 401 q 158 520 141 485 q 300 614 203 614 q 447 509 403 614 q 470 419 463 470 q 475 342 475 382 l 475 1 l 545 1 l 545 342 q 501 556 545 470 q 378 671 458 642 l 372 673 m 414 853 q 357 836 389 833 q 300 852 338 838 l 286 859 l 273 864 q 244 871 256 869 q 188 858 213 876 l 182 791 l 182 788 q 239 806 208 809 q 295 789 258 804 l 309 783 l 323 778 q 351 770 339 772 q 408 783 383 766 l 414 853 z "},"ò":{"ha":623,"x_min":54,"x_max":569,"o":"m 311 614 q 155 509 201 614 q 130 419 138 470 q 125 342 125 382 q 130 265 125 302 q 155 176 138 214 q 311 71 201 71 q 468 176 421 71 q 493 265 486 214 q 498 342 498 302 q 493 419 498 382 q 468 509 486 470 q 311 614 421 614 m 311 0 q 123 92 193 0 q 54 342 54 184 q 123 592 54 500 q 311 684 193 684 q 500 592 431 684 q 569 342 569 500 q 500 92 569 184 q 311 0 431 0 m 193 872 l 284 747 l 340 751 l 292 880 l 193 872 z "},"ó":{"ha":623,"x_min":54,"x_max":569,"o":"m 311 614 q 155 509 201 614 q 130 419 138 470 q 125 342 125 382 q 130 265 125 302 q 155 176 138 214 q 311 71 201 71 q 468 176 421 71 q 493 265 486 214 q 498 342 498 302 q 493 419 498 382 q 468 509 486 470 q 311 614 421 614 m 311 0 q 123 92 193 0 q 54 342 54 184 q 123 592 54 500 q 311 684 193 684 q 500 592 431 684 q 569 342 569 500 q 500 92 569 184 q 311 0 431 0 m 430 872 l 339 747 l 283 751 l 330 880 l 430 872 z "},"ô":{"ha":623,"x_min":54,"x_max":569,"o":"m 311 614 q 155 509 201 614 q 130 419 138 470 q 125 342 125 382 q 130 265 125 302 q 155 176 138 214 q 311 71 201 71 q 468 176 421 71 q 493 265 486 214 q 498 342 498 302 q 493 419 498 382 q 468 509 486 470 q 311 614 421 614 m 311 0 q 123 92 193 0 q 54 342 54 184 q 123 592 54 500 q 311 684 193 684 q 500 592 431 684 q 569 342 569 500 q 500 92 569 184 q 311 0 431 0 m 410 805 l 311 892 l 311 891 l 311 892 l 214 805 l 231 760 l 311 825 l 392 760 l 410 805 z "},"õ":{"ha":623,"x_min":54,"x_max":569,"o":"m 311 614 q 155 509 201 614 q 130 419 138 470 q 125 342 125 382 q 130 265 125 302 q 155 176 138 214 q 311 71 201 71 q 468 176 421 71 q 493 265 486 214 q 498 342 498 302 q 493 419 498 382 q 468 509 486 470 q 311 614 421 614 m 311 0 q 123 92 193 0 q 54 342 54 184 q 123 592 54 500 q 311 684 193 684 q 500 592 431 684 q 569 342 569 500 q 500 92 569 184 q 311 0 431 0 m 425 854 q 369 836 400 833 q 312 853 349 838 l 298 859 l 284 864 q 256 871 268 869 q 199 858 224 876 l 194 791 l 194 788 q 250 806 219 809 q 307 789 270 804 l 321 783 l 335 778 q 363 770 351 772 q 420 783 395 766 l 425 854 z "},"ö":{"ha":623,"x_min":54,"x_max":569,"o":"m 311 614 q 155 509 201 614 q 130 419 138 470 q 125 342 125 382 q 130 265 125 302 q 155 176 138 214 q 311 71 201 71 q 468 176 421 71 q 493 265 486 214 q 498 342 498 302 q 493 419 498 382 q 468 509 486 470 q 311 614 421 614 m 311 0 q 123 92 193 0 q 54 342 54 184 q 123 592 54 500 q 311 684 193 684 q 500 592 431 684 q 569 342 569 500 q 500 92 569 184 q 311 0 431 0 m 387 862 q 357 850 370 862 q 346 821 346 838 q 357 792 346 804 q 387 780 370 780 q 415 792 404 780 q 427 821 427 804 q 415 850 427 838 q 387 862 404 862 m 233 862 q 203 850 216 862 q 191 821 191 838 q 203 792 191 804 q 233 780 216 780 q 261 792 250 780 q 273 821 273 804 q 261 850 273 838 q 233 862 250 862 z "},"÷":{"ha":363,"x_min":54,"x_max":309,"o":"m 54 517 l 54 444 l 309 464 l 309 537 l 54 517 m 182 663 q 150 649 163 663 q 136 617 136 635 q 150 585 136 598 q 182 572 163 572 q 214 585 201 572 q 227 617 227 598 q 214 649 227 635 q 182 663 201 663 m 182 409 q 150 396 163 409 q 136 363 136 382 q 150 332 136 345 q 182 318 163 318 q 214 332 201 318 q 227 363 227 345 q 214 396 227 382 q 182 409 201 409 z "},"ø":{"ha":623,"x_min":54,"x_max":569,"o":"m 311 69 q 284 71 298 69 l 400 590 q 481 469 457 555 q 495 399 491 437 q 498 341 498 371 q 493 264 498 301 q 468 174 486 213 q 311 69 421 69 m 125 341 q 130 418 125 381 q 155 508 138 469 q 311 613 201 613 q 335 612 322 613 l 219 95 q 140 214 164 130 q 127 283 132 246 q 125 341 125 312 m 441 772 l 372 777 l 350 680 q 311 683 329 683 q 123 591 193 683 q 54 341 54 499 q 94 141 54 224 q 203 23 132 59 l 177 -95 l 247 -95 l 269 3 q 311 -1 292 -1 q 500 91 431 -1 q 569 341 569 183 q 528 543 569 460 q 416 661 488 626 l 441 772 z "},"ù":{"ha":600,"x_min":54,"x_max":545,"o":"m 475 684 l 475 325 q 467 248 474 283 q 442 164 459 200 q 300 71 397 71 q 153 176 197 71 q 130 265 137 214 q 125 342 125 302 l 125 684 l 54 684 l 54 342 q 98 128 54 214 q 221 14 142 43 l 228 12 l 233 9 q 300 0 265 0 q 367 9 335 0 l 372 12 l 379 14 q 476 96 439 36 l 484 0 l 545 0 l 545 684 l 475 684 m 184 871 l 275 746 l 331 751 l 283 880 l 184 871 z "},"ú":{"ha":600,"x_min":54,"x_max":545,"o":"m 475 684 l 475 325 q 467 248 474 283 q 442 164 459 200 q 300 71 397 71 q 153 176 197 71 q 130 265 137 214 q 125 342 125 302 l 125 684 l 54 684 l 54 342 q 98 128 54 214 q 221 14 142 43 l 228 12 l 233 9 q 300 0 265 0 q 367 9 335 0 l 372 12 l 379 14 q 476 96 439 36 l 484 0 l 545 0 l 545 684 l 475 684 m 420 871 l 330 746 l 273 751 l 321 880 l 420 871 z "},"û":{"ha":600,"x_min":54,"x_max":545,"o":"m 475 684 l 475 325 q 467 248 474 283 q 442 164 459 200 q 300 71 397 71 q 153 176 197 71 q 130 265 137 214 q 125 342 125 302 l 125 684 l 54 684 l 54 342 q 98 128 54 214 q 221 14 142 43 l 228 12 l 233 9 q 300 0 265 0 q 367 9 335 0 l 372 12 l 379 14 q 476 96 439 36 l 484 0 l 545 0 l 545 684 l 475 684 m 400 805 l 302 891 l 302 891 l 302 891 l 204 805 l 221 760 l 302 825 l 382 760 l 400 805 z "},"ü":{"ha":600,"x_min":54,"x_max":545,"o":"m 475 684 l 475 325 q 467 248 474 283 q 442 164 459 200 q 300 71 397 71 q 153 176 197 71 q 130 265 137 214 q 125 342 125 302 l 125 684 l 54 684 l 54 342 q 98 128 54 214 q 221 14 142 43 l 228 12 l 233 9 q 300 0 265 0 q 367 9 335 0 l 372 12 l 379 14 q 476 96 439 36 l 484 0 l 545 0 l 545 684 l 475 684 m 377 861 q 348 850 360 861 q 336 821 336 838 q 348 792 336 804 q 377 780 360 780 q 406 792 394 780 q 418 821 418 804 q 406 850 418 838 q 377 861 394 861 m 223 861 q 194 850 206 861 q 182 821 182 838 q 194 792 182 804 q 223 780 206 780 q 252 792 240 780 q 264 821 264 804 q 252 850 264 838 q 223 861 240 861 z "},"ý":{"ha":623,"x_min":54,"x_max":569,"o":"m 498 679 l 498 342 q 493 266 498 302 q 468 176 486 215 q 311 71 421 71 q 155 176 201 71 q 130 266 138 215 q 125 342 125 302 l 125 683 l 54 677 l 54 342 q 87 157 54 236 q 178 39 119 80 l 182 37 l 187 34 q 311 1 241 1 q 441 37 385 1 l 445 39 q 498 95 475 62 l 498 -7 q 492 -84 498 -47 q 467 -173 484 -135 q 311 -275 420 -275 q 142 -136 184 -275 l 68 -130 q 155 -289 92 -233 q 311 -346 219 -346 q 498 -255 430 -346 q 568 -7 568 -164 l 569 685 l 498 679 m 430 872 l 339 747 l 283 751 l 330 880 l 430 872 z "},"þ":{"ha":623,"x_min":54,"x_max":569,"o":"m 311 71 q 155 175 202 71 q 130 264 138 214 q 125 341 125 301 l 125 344 q 130 421 125 384 q 155 510 138 471 q 311 614 202 614 q 468 509 421 614 q 493 419 486 471 q 498 342 498 382 q 493 266 498 302 q 468 176 486 214 q 311 71 421 71 m 441 648 l 436 651 q 311 684 381 684 q 182 648 238 684 l 178 646 q 125 590 148 624 l 125 591 l 117 999 l 54 994 l 54 -321 l 125 -316 l 125 95 q 178 39 148 61 l 187 34 q 311 1 241 1 q 434 33 380 1 l 439 36 l 444 39 q 536 157 504 80 q 569 342 569 236 q 536 528 569 449 q 444 646 504 605 l 441 648 z "},"ÿ":{"ha":623,"x_min":54,"x_max":569,"o":"m 498 679 l 498 342 q 493 266 498 302 q 468 176 486 215 q 311 71 421 71 q 155 176 201 71 q 130 266 138 215 q 125 342 125 302 l 125 683 l 54 677 l 54 342 q 87 157 54 236 q 178 39 119 80 l 182 37 l 187 34 q 311 1 241 1 q 441 37 385 1 l 445 39 q 498 95 475 62 l 498 -7 q 492 -84 498 -47 q 467 -173 484 -135 q 311 -275 420 -275 q 142 -136 184 -275 l 68 -130 q 155 -289 92 -233 q 311 -346 219 -346 q 498 -255 430 -346 q 568 -7 568 -164 l 569 685 l 498 679 m 387 862 q 357 850 370 862 q 346 821 346 838 q 357 792 346 804 q 387 781 370 781 q 415 792 404 781 q 427 821 427 804 q 415 850 427 838 q 387 862 404 862 m 233 862 q 203 850 216 862 q 191 821 191 838 q 203 792 191 804 q 233 781 216 781 q 261 792 250 781 q 273 821 273 804 q 261 850 273 838 q 233 862 250 862 z "},"ı":{"ha":417,"x_min":54,"x_max":363,"o":"m 264 151 q 332 34 264 34 l 363 34 l 363 0 l 63 0 l 63 34 l 94 34 q 162 151 162 34 l 162 444 q 87 496 162 496 l 54 496 l 54 526 q 231 650 205 573 l 264 650 l 264 151 z "},"ˆ":{"ha":503,"x_min":54,"x_max":449,"o":"m 54 732 l 212 972 l 292 972 l 449 732 l 410 732 l 252 878 l 94 732 l 54 732 z "},"ˇ":{"ha":503,"x_min":54,"x_max":449,"o":"m 54 972 l 94 972 l 252 827 l 410 972 l 449 972 l 292 731 l 212 731 l 54 972 z "},"ˉ":{"ha":458,"x_min":54,"x_max":404,"o":"m 54 810 l 54 895 l 404 895 l 404 810 l 54 810 z "},"˘":{"ha":505,"x_min":54,"x_max":450,"o":"m 54 915 l 89 915 q 140 842 100 865 q 253 819 179 819 q 366 842 327 819 q 416 915 404 865 l 450 915 q 387 778 437 825 q 253 732 336 732 q 119 779 170 732 q 54 915 68 825 z "},"˙":{"ha":235,"x_min":54,"x_max":181,"o":"m 117 968 q 162 949 144 968 q 181 904 181 930 q 162 859 181 878 q 117 841 144 841 q 73 859 92 841 q 54 904 54 878 q 73 949 54 930 q 117 968 92 968 z "},"˚":{"ha":349,"x_min":54,"x_max":295,"o":"m 106 852 q 125 804 106 824 q 174 785 145 785 q 222 804 202 785 q 241 852 241 824 q 221 900 241 880 q 174 920 201 920 q 126 900 146 920 q 106 852 106 880 m 54 852 q 89 938 54 903 q 174 972 123 972 q 260 938 225 972 q 295 852 295 903 q 260 767 295 802 q 174 732 225 732 q 89 767 123 732 q 54 852 54 802 z "},"˛":{"ha":358,"x_min":54,"x_max":304,"o":"m 238 0 q 163 -81 190 -42 q 136 -157 136 -120 q 155 -208 136 -189 q 204 -227 173 -227 q 251 -217 231 -227 q 285 -184 271 -206 l 304 -195 q 242 -260 279 -237 q 161 -283 205 -283 q 84 -259 114 -283 q 54 -198 54 -235 q 95 -92 54 -146 q 205 0 136 -37 l 238 0 z "},"˜":{"ha":363,"x_min":54,"x_max":309,"o":"m 54 923 q 118 916 83 911 q 150 923 133 918 l 182 933 q 309 943 267 960 l 309 870 q 182 860 267 887 q 118 843 139 846 q 54 850 83 838 l 54 923 z "},"˝":{"ha":336,"x_min":54,"x_max":282,"o":"m 54 769 l 127 769 l 148 1024 l 75 1024 l 54 769 m 282 1024 l 209 1024 l 188 769 l 261 769 l 282 1024 z "},"–":{"ha":363,"x_min":54,"x_max":309,"o":"m 54 572 l 54 499 l 309 520 l 309 593 l 54 572 z "},"—":{"ha":553,"x_min":54,"x_max":498,"o":"m 54 572 l 54 499 l 498 520 l 498 593 l 54 572 z "},"‘":{"ha":202,"x_min":54,"x_max":148,"o":"m 54 769 l 127 769 l 148 1024 l 75 1024 l 54 769 z "},"’":{"ha":202,"x_min":54,"x_max":148,"o":"m 127 1024 l 54 1024 l 75 769 l 148 769 l 127 1024 z "},"‚":{"ha":229,"x_min":54,"x_max":174,"o":"m 65 71 l 54 -68 l 163 -68 l 174 71 l 65 71 z "},"“":{"ha":336,"x_min":54,"x_max":282,"o":"m 54 769 l 127 769 l 148 1024 l 75 1024 l 54 769 m 282 1024 l 209 1024 l 188 769 l 261 769 l 282 1024 z "},"”":{"ha":336,"x_min":54,"x_max":282,"o":"m 261 1024 l 188 1024 l 209 769 l 282 769 l 261 1024 m 75 769 l 148 769 l 127 1024 l 54 1024 l 75 769 z "},"„":{"ha":336,"x_min":54,"x_max":282,"o":"m 54 769 l 127 769 l 148 1024 l 75 1024 l 54 769 m 282 1024 l 209 1024 l 188 769 l 261 769 l 282 1024 z "},"†":{"ha":701,"x_min":54,"x_max":646,"o":"m 336 693 q 299 814 330 759 q 260 901 260 882 q 285 955 260 935 q 350 975 309 975 q 414 956 389 975 q 439 907 439 937 q 402 814 439 886 q 365 693 371 757 q 485 730 430 699 q 572 768 553 768 q 626 744 606 768 q 646 679 646 720 q 628 615 646 640 q 578 589 609 589 q 486 627 557 589 q 365 665 429 658 q 439 477 370 546 q 363 -183 368 165 l 338 -183 q 260 477 334 165 q 336 665 330 546 q 215 628 271 659 q 127 589 146 589 q 74 614 94 589 q 54 679 54 638 q 73 743 54 718 q 121 768 92 768 q 214 730 143 768 q 336 693 272 699 z "},"‡":{"ha":701,"x_min":54,"x_max":646,"o":"m 365 126 q 486 165 429 134 q 578 202 557 202 q 628 177 609 202 q 646 113 646 151 q 626 47 646 72 q 572 23 606 23 q 485 62 553 23 q 365 98 430 93 q 402 -23 371 35 q 439 -116 439 -94 q 414 -164 439 -146 q 350 -183 389 -183 q 285 -163 309 -183 q 260 -110 260 -143 q 299 -22 260 -91 q 336 98 330 33 q 214 61 272 92 q 121 23 143 23 q 73 48 92 23 q 54 113 54 74 q 74 178 54 153 q 127 202 94 202 q 215 163 146 202 q 336 126 271 133 q 260 396 330 279 q 336 665 330 512 q 215 628 271 659 q 127 589 146 589 q 74 614 94 589 q 54 679 54 638 q 73 743 54 718 q 121 768 92 768 q 214 730 143 768 q 336 693 272 699 q 299 814 330 759 q 260 901 260 882 q 285 955 260 935 q 350 975 309 975 q 414 956 389 975 q 439 907 439 937 q 402 814 439 886 q 365 693 371 757 q 485 730 430 699 q 572 768 553 768 q 626 744 606 768 q 646 679 646 720 q 628 615 646 640 q 578 589 609 589 q 486 627 557 589 q 365 665 429 658 q 439 396 370 512 q 365 126 370 279 z "},"•":{"ha":510,"x_min":54,"x_max":456,"o":"m 54 487 q 113 629 54 570 q 256 687 172 687 q 397 628 338 687 q 456 487 456 570 q 396 345 456 404 q 254 286 337 286 q 113 345 171 286 q 54 487 54 404 z "},"…":{"ha":742,"x_min":54,"x_max":688,"o":"m 100 84 q 68 71 81 84 q 54 39 54 58 q 68 7 54 20 q 100 -7 81 -7 q 132 7 119 -7 q 145 39 145 20 q 132 71 145 58 q 100 84 119 84 m 371 84 q 339 71 352 84 q 326 39 326 58 q 339 7 326 20 q 371 -7 352 -7 q 403 7 390 -7 q 416 39 416 20 q 403 71 416 58 q 371 84 390 84 m 642 84 q 610 71 623 84 q 597 39 597 58 q 610 7 597 20 q 642 -7 623 -7 q 674 7 661 -7 q 688 39 688 20 q 674 71 688 58 q 642 84 661 84 z "},"‹":{"ha":329,"x_min":54,"x_max":275,"o":"m 260 588 l 55 530 l 54 457 l 275 393 l 269 467 l 182 493 l 265 517 l 260 588 z "},"›":{"ha":329,"x_min":54,"x_max":275,"o":"m 64 517 l 147 493 l 60 467 l 54 393 l 275 457 l 274 530 l 68 588 l 64 517 z "},"⁄":{"ha":420,"x_min":54,"x_max":366,"o":"m 297 981 l 54 0 l 125 0 l 366 975 l 300 981 l 297 981 z "},"∕":{"ha":420,"x_min":54,"x_max":366,"o":"m 297 981 l 54 0 l 125 0 l 366 975 l 300 981 l 297 981 z "},"₣":{"ha":568,"x_min":54,"x_max":514,"o":"m 54 811 l 54 0 l 129 0 l 129 371 l 479 371 l 485 446 l 129 446 l 129 736 l 508 736 l 514 811 l 54 811 z "},"₤":{"ha":692,"x_min":54,"x_max":638,"o":"m 413 766 q 524 718 484 766 q 565 583 563 671 l 638 578 q 577 769 637 699 q 413 840 517 840 q 271 791 329 840 q 195 656 213 742 l 54 45 l 90 0 l 607 0 l 613 73 l 136 73 l 180 266 l 422 285 l 422 358 l 197 340 l 212 402 l 422 419 l 422 492 l 229 477 l 267 641 q 413 766 293 766 z "},"₧":{"ha":1375,"x_min":0,"x_max":0,"o":""},"€":{"ha":713,"x_min":54,"x_max":659,"o":"m 369 769 q 514 716 456 769 q 584 604 559 675 l 659 610 q 550 783 625 722 q 369 843 475 843 q 139 730 224 843 q 54 421 54 616 q 139 113 54 227 q 369 0 224 0 q 550 60 475 0 q 659 233 625 120 l 584 239 q 514 126 559 168 q 369 73 456 73 q 218 132 278 73 q 138 299 159 190 l 370 317 l 370 391 l 130 372 q 127 421 127 395 l 128 432 l 370 451 l 370 524 l 132 505 l 132 505 q 209 701 148 633 q 369 769 270 769 z "},"№":{"ha":1006,"x_min":54,"x_max":952,"o":"m 642 59 l 642 0 l 846 16 l 846 76 l 642 59 m 745 218 q 630 296 665 218 q 612 363 618 326 q 608 421 608 391 q 612 479 608 452 q 630 547 618 517 q 745 625 665 625 q 859 547 825 625 q 877 479 871 517 q 880 421 880 452 q 877 363 880 391 q 859 296 871 326 q 745 218 825 218 m 745 698 q 593 623 648 698 q 536 421 536 549 q 593 219 536 294 q 745 145 648 145 q 897 219 840 145 q 952 421 952 294 q 897 623 952 549 q 745 698 840 698 m 312 543 l 307 545 q 253 553 281 553 q 199 545 224 553 l 194 543 l 189 541 q 123 492 151 526 l 119 547 l 54 553 l 54 0 l 126 0 l 126 290 q 132 348 127 321 q 150 410 138 384 q 253 480 182 480 q 359 401 328 480 q 376 334 372 372 q 380 276 380 306 l 380 1 l 452 1 l 452 276 q 416 448 452 378 q 317 541 381 517 l 312 543 z "},"™":{"ha":351,"x_min":54,"x_max":297,"o":"m 172 999 l 172 828 l 192 828 l 192 947 l 226 861 l 243 859 l 278 946 l 278 828 l 297 828 l 297 998 l 279 999 l 235 887 l 191 998 l 172 999 m 54 999 l 54 980 l 98 980 l 98 828 l 117 828 l 117 980 l 160 980 l 160 999 l 54 999 z "},"∂":{"ha":596,"x_min":54,"x_max":542,"o":"m 298 522 q 187 448 221 522 q 169 380 174 419 q 164 316 164 351 q 169 251 164 281 q 187 184 174 212 q 298 110 221 110 q 409 184 375 110 q 427 251 422 212 q 432 316 432 281 q 427 380 432 351 q 409 448 422 419 q 298 522 375 522 m 298 0 q 120 85 185 0 q 54 316 54 170 q 120 547 54 462 q 298 632 185 632 q 392 613 349 632 q 332 734 368 683 q 85 869 242 861 l 66 870 l 58 980 l 82 979 q 422 798 298 971 q 542 338 542 628 l 542 330 l 542 316 q 476 85 542 170 q 298 0 411 0 z "},"∆":{"ha":832,"x_min":54,"x_max":778,"o":"m 399 810 l 123 83 l 667 83 l 399 810 m 421 972 l 778 0 l 54 0 l 421 972 z "},"∏":{"ha":1071,"x_min":54,"x_max":1017,"o":"m 368 939 q 299 779 299 939 l 299 -90 q 368 -249 299 -249 l 434 -249 l 434 -283 l 54 -283 l 54 -249 l 119 -249 q 189 -90 189 -249 l 189 779 q 119 939 189 939 l 54 939 l 54 972 l 1017 972 l 1017 939 l 951 939 q 882 779 882 939 l 882 -90 q 951 -249 882 -249 l 1017 -249 l 1017 -283 l 637 -283 l 637 -249 l 702 -249 q 772 -90 772 -249 l 772 779 q 702 939 772 939 l 368 939 z "},"∑":{"ha":803,"x_min":54,"x_max":749,"o":"m 691 372 l 157 -248 l 587 -248 q 715 -125 675 -248 l 749 -125 l 679 -282 l 54 -282 l 54 -248 q 126 -212 96 -248 l 576 317 l 126 900 q 54 939 96 939 l 54 972 l 679 972 l 749 815 l 715 815 q 587 939 675 939 l 258 939 l 691 372 z "},"−":{"ha":363,"x_min":54,"x_max":309,"o":"m 54 572 l 54 499 l 309 520 l 309 593 l 54 572 z "},"√":{"ha":812,"x_min":54,"x_max":758,"o":"m 165 0 l 54 243 l 104 267 l 162 142 l 656 1139 l 758 1139 l 758 1098 l 709 1098 l 165 0 z "},"∞":{"ha":709,"x_min":54,"x_max":654,"o":"m 307 512 q 257 602 297 582 q 200 617 226 617 q 184 616 192 617 q 122 586 151 609 q 77 528 92 562 q 64 467 64 497 l 64 462 q 82 401 65 429 q 131 362 100 374 q 172 355 151 355 q 195 357 183 355 q 256 386 227 363 q 307 512 286 409 m 326 466 q 389 362 334 401 q 473 330 436 330 q 487 331 480 330 q 567 366 529 339 q 624 435 604 393 q 642 508 642 471 l 642 515 q 617 589 640 556 q 555 635 595 622 q 504 644 530 644 q 474 642 489 644 q 388 600 429 635 q 326 466 347 564 m 315 561 q 329 608 321 585 q 393 701 352 667 q 480 734 435 734 q 567 701 526 734 q 631 610 608 669 q 654 486 654 551 q 631 363 654 422 q 567 271 608 304 q 480 239 526 239 q 393 272 435 239 q 329 364 352 305 q 315 412 321 388 q 307 384 311 397 q 256 307 288 334 q 189 280 224 280 q 121 308 154 280 q 72 385 89 336 q 54 486 54 434 q 72 587 54 538 q 121 665 89 637 q 189 692 154 692 q 256 665 224 692 q 307 589 288 638 q 315 561 311 575 z "},"∫":{"ha":649,"x_min":54,"x_max":595,"o":"m 95 -191 q 54 -171 54 -191 l 54 -63 l 79 -63 q 102 -107 79 -92 q 145 -121 125 -121 l 146 -121 q 224 -12 201 -121 q 251 203 245 98 l 298 701 l 304 743 q 395 1034 322 904 q 554 1164 469 1164 q 595 1144 595 1164 l 595 1036 l 570 1036 q 547 1080 570 1065 q 504 1095 524 1095 q 425 989 456 1095 q 392 743 395 884 l 342 222 q 254 -62 329 66 q 95 -191 179 -191 z "},"≈":{"ha":363,"x_min":54,"x_max":309,"o":"m 54 376 q 118 370 83 365 q 182 387 139 373 q 309 397 267 414 l 309 470 q 182 460 267 488 l 150 450 q 118 444 132 446 q 54 450 83 438 l 54 376 m 54 511 q 118 504 83 499 q 182 521 139 507 q 309 531 267 548 l 309 604 q 182 594 267 621 l 150 584 q 118 577 132 579 q 54 584 83 572 l 54 511 z "},"≤":{"ha":288,"x_min":54,"x_max":234,"o":"m 54 439 l 54 366 l 234 380 l 234 454 l 54 439 m 222 625 l 55 578 l 54 521 l 234 469 l 230 524 l 145 549 l 227 572 l 222 625 z "},"≥":{"ha":288,"x_min":54,"x_max":234,"o":"m 54 454 l 54 380 l 234 366 l 234 439 l 54 454 m 62 572 l 142 549 l 58 524 l 54 469 l 234 521 l 233 578 l 66 625 l 62 572 z "},"":{"ha":596,"x_min":54,"x_max":542,"o":"m 270 209 l 270 565 l 298 565 q 438 614 389 565 q 487 757 487 664 q 438 899 487 850 q 298 949 389 949 q 161 903 210 949 q 110 769 113 856 l 54 773 q 124 943 59 880 q 298 1004 190 1004 q 477 938 411 1004 q 542 757 542 871 q 487 587 542 652 q 334 511 431 522 l 326 510 l 326 204 l 270 209 m 298 0 q 272 11 283 0 q 262 37 262 22 q 272 62 262 52 q 298 73 283 73 q 323 62 313 73 q 334 37 334 52 q 323 11 334 22 q 298 0 313 0 z "},"ﬁ":{"ha":596,"x_min":54,"x_max":542,"o":"m 270 209 l 270 565 l 298 565 q 438 614 389 565 q 487 757 487 664 q 438 899 487 850 q 298 949 389 949 q 161 903 210 949 q 110 769 113 856 l 54 773 q 124 943 59 880 q 298 1004 190 1004 q 477 938 411 1004 q 542 757 542 871 q 487 587 542 652 q 334 511 431 522 l 326 510 l 326 204 l 270 209 m 298 0 q 272 11 283 0 q 262 37 262 22 q 272 62 262 52 q 298 73 283 73 q 323 62 313 73 q 334 37 334 52 q 323 11 334 22 q 298 0 313 0 z "},"":{"ha":596,"x_min":54,"x_max":542,"o":"m 270 209 l 270 565 l 298 565 q 438 614 389 565 q 487 757 487 664 q 438 899 487 850 q 298 949 389 949 q 161 903 210 949 q 110 769 113 856 l 54 773 q 124 943 59 880 q 298 1004 190 1004 q 477 938 411 1004 q 542 757 542 871 q 487 587 542 652 q 334 511 431 522 l 326 510 l 326 204 l 270 209 m 298 0 q 272 11 283 0 q 262 37 262 22 q 272 62 262 52 q 298 73 283 73 q 323 62 313 73 q 334 37 334 52 q 323 11 334 22 q 298 0 313 0 z "},"ﬂ":{"ha":596,"x_min":54,"x_max":542,"o":"m 270 209 l 270 565 l 298 565 q 438 614 389 565 q 487 757 487 664 q 438 899 487 850 q 298 949 389 949 q 161 903 210 949 q 110 769 113 856 l 54 773 q 124 943 59 880 q 298 1004 190 1004 q 477 938 411 1004 q 542 757 542 871 q 487 587 542 652 q 334 511 431 522 l 326 510 l 326 204 l 270 209 m 298 0 q 272 11 283 0 q 262 37 262 22 q 272 62 262 52 q 298 73 283 73 q 323 62 313 73 q 334 37 334 52 q 323 11 334 22 q 298 0 313 0 z "}}}
